<svg width="210" height="208" viewBox="0 0 210 208" fill="none" xmlns="http://www.w3.org/2000/svg">
<path d="M114.732 207.38C104.068 208.341 93.2541 207.666 82.6041 205.335C58.5691 200.075 36.6865 186.098 21.8126 166.502C11.4558 152.857 4.4846 136.651 1.94568 119.696C-1.6735 95.5272 3.70572 70.5902 16.6263 49.8775C29.8164 28.7338 50.8051 12.7743 74.6256 5.4944C79.6427 3.9611 84.7769 2.81316 89.9689 2.062C115.405 -1.61875 141.72 4.24737 163.135 18.4729C166.264 20.5514 169.281 22.7987 172.167 25.2023C192.175 41.8664 204.629 64.7147 208.213 90.462C210.578 107.447 208.814 124.841 202.847 140.933C202.086 142.986 201.249 145.011 200.336 147.001C195.221 158.144 188.104 168.343 179.452 177.028C169.798 186.72 158.199 194.526 145.56 199.769C135.632 203.888 125.255 206.431 114.732 207.38Z" fill="white"/>
<path d="M204.258 104.365C204.258 104.477 204.258 104.589 204.257 104.7C204.22 120.241 200.382 135.682 193.133 149.429C184.065 166.612 169.761 181.061 152.602 190.207C133.959 200.143 112.109 203.899 91.2097 200.875C70.3833 197.862 50.8267 188.038 35.8977 173.224C21.587 159.024 11.8044 140.358 8.47968 120.458C4.97102 99.4584 8.55186 77.4057 18.6142 58.6349C28.2459 40.6671 43.59 25.9486 61.8689 16.9482C81.8635 7.1032 105.224 4.34528 126.98 9.07896C130.973 9.94756 134.912 11.0633 138.766 12.4229C157.201 18.9264 173.591 31.0203 185.236 46.7229C197.506 63.2691 204.235 83.7726 204.258 104.365Z" fill="#F1BD06"/>
<path d="M36.4778 42.5369C34.3992 42.3872 32.3301 41.9945 30.2891 41.5455C30.3931 41.4146 30.5064 41.2743 30.6385 41.1434C32.5849 41.5643 34.5501 41.9293 36.5153 42.0789C46.9744 42.8647 57.0082 37.6829 63.6503 33.7171C71.7002 28.9096 79.2586 23.26 86.1177 16.9188C87.6767 15.4785 89.2259 13.9819 90.7283 12.5228C92.5613 10.755 94.4131 8.95909 96.3403 7.22882C96.605 7.20068 96.8599 7.17255 97.1245 7.16357C95.0366 9.00599 93.0335 10.9422 91.059 12.8596C89.5567 14.3187 87.9977 15.8153 86.4387 17.2557C79.551 23.625 71.9644 29.2929 63.8954 34.1192C57.1974 38.1127 47.069 43.3415 36.4778 42.5369Z" fill="#FADED3"/>
<path d="M138.809 12.4387C137.146 18.032 131.969 22.6148 128.473 25.1872C112.798 36.7008 93.6945 42.8365 75.2141 48.7662C55.5335 55.0797 35.1732 61.6081 19.1114 74.6649C15.5399 77.5643 12.2425 80.7818 9.23828 84.2517C9.30434 83.9336 9.37041 83.6249 9.44626 83.3072C12.309 80.0522 15.4363 77.0407 18.8092 74.3003C34.9469 61.1966 55.3451 54.6495 75.0726 48.3173C93.5151 42.4063 112.582 36.2796 128.19 24.8128C131.639 22.278 136.75 17.751 138.366 12.2797C138.516 12.3262 138.667 12.373 138.809 12.4387Z" fill="#FADED3"/>
<path d="M171.397 31.6265C171.104 32.5991 170.802 33.5717 170.518 34.5259C168.723 40.4838 166.881 46.6476 162.733 51.3707C158.255 56.4869 151.235 59.3582 144.423 58.881C139.84 58.554 135.485 56.8233 131.28 55.1587C129.853 54.5882 128.38 54.0083 126.915 53.4843C119.64 50.8842 113.725 50.781 109.323 53.1756C105.005 55.5233 101.916 60.5738 100.858 67.0182C100.3 70.3572 100.253 73.8084 100.215 77.1478C100.186 79.3739 100.149 81.6841 99.9693 83.938C99.5346 89.4469 97.6355 99.5952 89.8597 105.722C80.5249 113.073 67.033 111.24 57.5281 107.059C57.0934 106.872 56.6493 106.676 56.215 106.47C53.1725 105.105 50.0361 103.683 46.786 104.029C42.2982 104.506 39.0763 108.191 37.5646 111.483C35.807 115.299 35.4481 119.555 35.108 123.67L32.406 156.406C32.2078 158.875 31.9717 161.242 31.5651 163.458C31.3098 164.87 30.9889 166.217 30.5636 167.508C30.4408 167.368 30.3181 167.228 30.1953 167.087C30.5448 165.984 30.8282 164.833 31.0456 163.645C31.4803 161.363 31.7258 158.922 31.9337 156.369L34.6358 123.633C34.9853 119.48 35.3352 115.187 37.1303 111.287C38.6986 107.882 42.0527 104.057 46.7391 103.561C50.112 103.206 53.3152 104.656 56.4047 106.049C56.8488 106.246 57.2835 106.442 57.7178 106.639C67.0999 110.754 80.3932 112.578 89.5673 105.357C97.2016 99.3432 99.0722 89.3355 99.4975 83.9013C99.6769 81.6568 99.7149 79.365 99.743 77.1486C99.7903 73.7908 99.8278 70.3209 100.386 66.9444C101.481 60.3597 104.656 55.1876 109.097 52.7649C113.623 50.3051 119.669 50.3985 127.077 53.0455C128.541 53.5691 130.025 54.1584 131.46 54.7199C135.627 56.3845 139.945 58.0964 144.461 58.4141C151.122 58.8819 157.99 56.0664 162.375 51.0718C166.456 46.414 168.289 40.3064 170.066 34.395C170.377 33.3662 170.689 32.3279 171.01 31.2897C171.142 31.3928 171.274 31.505 171.397 31.6265Z" fill="#FADED3"/>
<path d="M204.19 108.037C204.19 108.205 204.181 108.383 204.172 108.551C203.047 108.953 201.838 109.141 200.553 109.028C196.83 108.71 194.062 106.026 191.379 103.426C188.941 101.069 186.428 98.637 183.225 97.9633C178.264 96.9251 173.418 100.601 171.197 104.772C169.081 108.747 168.552 113.368 168.042 117.839L167.881 119.251C165.821 136.741 160.927 151.547 153.36 163.267C151.583 166.016 149.335 169.028 146.122 170.543C141.994 172.489 136.429 171.628 132.291 168.392C128.936 165.773 126.338 161.723 124.543 156.345C118.657 138.686 124.298 119.765 129.872 105.249C132.725 97.832 136.391 89.2928 141.975 82.1001C147.899 74.496 155.476 69.277 163.337 67.4065C168.241 66.2373 173.371 66.303 178.341 66.3589C180.618 66.3866 182.97 66.4151 185.276 66.3307C188.45 66.1998 192.182 65.7508 195.716 64.554C195.791 64.7036 195.858 64.8439 195.915 64.9936C192.844 66.0318 189.292 66.6398 185.295 66.7985C182.98 66.8825 180.618 66.8547 178.341 66.8266C173.4 66.7703 168.288 66.7051 163.442 67.8648C155.694 69.7073 148.202 74.8703 142.353 82.3901C136.798 89.5265 133.151 98.0379 130.316 105.417C124.77 119.859 119.149 138.677 124.988 156.196C126.754 161.49 129.305 165.464 132.575 168.018C136.581 171.151 141.947 171.993 145.915 170.123C149.024 168.654 151.225 165.708 152.964 163.024C160.494 151.36 165.359 136.61 167.41 119.195L167.57 117.792C168.09 113.274 168.619 108.607 170.783 104.548C173.088 100.227 178.133 96.4202 183.32 97.505C186.665 98.2064 189.225 100.694 191.71 103.089C194.45 105.745 197.039 108.261 200.592 108.56C201.866 108.663 203.075 108.458 204.19 108.037Z" fill="#FADED3"/>
<path d="M133.714 156.922C133.629 156.875 133.544 156.632 133.469 156.211C133.223 154.911 133.006 151.993 132.836 148.476C132.703 145.773 132.59 142.724 132.505 139.796C132.429 137.374 132.363 135.035 132.316 133.052C132.316 133.043 132.316 133.033 132.316 133.033C132.241 129.676 132.193 127.337 132.193 127.337L132.392 127.029C126.023 130.351 118.794 131.606 111.683 131.963C105.891 132.253 99.4258 132.213 94.0544 129.749C93.6988 129.586 91.4853 128.64 91.4914 128.217C91.4726 129.488 91.4159 132.051 91.3307 135.138C91.274 137.139 91.208 139.365 91.1321 141.61C91.0567 143.958 90.9715 146.324 90.8675 148.466C90.6407 153.114 90.3573 156.743 89.998 156.921L99.1224 174.843H127.575L133.714 156.922Z" fill="#E1876A"/>
<g opacity="0.43">
<path d="M132.501 139.801C129.158 143.032 125.358 145.595 120.825 146.734C117.571 147.559 114.159 147.569 110.806 147.431C105.38 147.205 99.8346 146.567 94.9937 144.142C93.6248 143.454 92.3153 142.6 91.1348 141.608C91.3334 135.912 91.4622 130.315 91.492 128.214C97.166 132.682 109.02 132.299 115.22 131.71C120.368 131.228 125.457 130.001 130.228 128.027C130.953 127.733 131.687 127.399 132.391 127.026L132.192 127.34C132.193 127.339 132.302 133.251 132.501 139.801Z" fill="#331510"/>
</g>
<path d="M182.684 165.264C182.447 165.573 182.183 165.891 181.928 166.2C181.418 166.827 180.888 167.453 180.341 168.07C176.939 171.98 173.226 175.618 169.249 178.948C168.663 179.434 168.068 179.92 167.472 180.398C166.443 181.22 165.403 182.016 164.336 182.792C153.858 190.49 141.783 196.176 128.688 199.263C123.718 200.441 118.597 201.246 113.363 201.639C110.84 201.835 108.28 201.938 105.701 201.938C98.3688 201.938 91.2259 201.143 84.3476 199.637C73.4917 197.261 63.316 193.118 54.1325 187.525C51.7045 186.047 49.3519 184.467 47.0654 182.793C46.2433 182.185 45.431 181.567 44.6276 180.941C41.1222 178.21 37.8154 175.235 34.726 172.055C34.414 171.737 34.0931 171.41 33.7905 171.082C33.1478 170.418 32.5341 169.745 31.9199 169.062C51.1279 158.942 89.109 157.352 89.9972 156.922C90.356 156.744 90.0269 153.115 90.2537 148.466C93.3244 150.187 97.4235 151.263 100.9 152.058C102.79 152.488 104.935 153.003 105.917 154.667C106.447 155.565 106.532 156.632 106.607 157.661C106.692 158.755 106.768 159.84 106.853 160.925C108.289 161.524 110.008 161.879 111.7 161.935C112.2 161.954 112.701 161.944 113.192 161.898C113.75 161.86 114.298 161.785 114.817 161.663C114.477 160.055 114.732 158.334 114.959 156.706C115.125 155.514 115.662 154.316 116.563 153.502C117.668 152.504 119.127 152.45 120.537 152.336C124.889 151.981 129.224 150.612 133.023 148.463C133.046 148.45 133.238 148.359 133.238 148.34C133.408 151.856 133.222 154.91 133.468 156.21C133.543 156.631 133.628 156.875 133.713 156.921C134.138 157.127 142.698 157.585 153.658 159.054C153.828 159.072 154.007 159.1 154.177 159.129C154.518 159.175 154.858 159.222 155.207 159.269C155.368 159.297 155.538 159.316 155.708 159.344C164.363 160.56 174.237 162.421 182.684 165.264Z" fill="#2B1E1B"/>
<path d="M73.2612 111.282C73.3803 111.97 60.1372 109.367 58.9766 108.915C54.9888 107.354 51.6163 104.025 49.4835 100.333C47.6187 97.102 46.8349 93.1248 48.075 89.6096C48.3429 88.8434 48.67 88.166 49.0672 87.567C49.2062 87.3313 49.3547 87.1152 49.5137 86.9092C53.6504 81.5671 62.449 83.4621 67.3294 87.6061C69.5809 94.9713 72.0015 103.721 73.2612 111.282Z" fill="#E1876A"/>
<path d="M169.999 96.572C168.213 100.451 165.168 104.065 161.339 105.989C160.228 106.539 147.273 110.34 147.332 109.632C147.888 101.992 149.495 93.0564 151.052 85.5244C155.447 81.0367 163.809 78.3558 168.471 82.9517C168.659 83.1482 168.848 83.3444 169.026 83.5703C169.552 84.1889 170.018 84.9254 170.405 85.7699C171.963 89.1579 171.546 93.1938 169.999 96.572Z" fill="#E1876A"/>
<path d="M70.6718 110.221C70.6322 110.231 70.5926 110.241 70.5527 110.241C70.4038 110.241 70.255 110.143 70.2056 109.996C66.9718 100.961 60.2461 93.1643 51.735 88.5978C50.9117 88.1459 49.9892 87.7239 49.0664 87.5665C49.2055 87.3308 49.3539 87.1146 49.5129 86.9087C50.4158 87.1146 51.2983 87.5273 52.0922 87.9494C60.7619 92.6039 67.6166 100.549 70.9001 109.75C70.9694 109.937 70.8704 110.153 70.6718 110.221Z" fill="#331510"/>
<path d="M169.026 83.5699C164.8 84.5421 160.654 87.3408 157.42 91.4848C153.998 95.8547 151.865 101.079 149.812 106.127C149.752 106.264 149.613 106.353 149.465 106.353C149.415 106.353 149.366 106.343 149.326 106.333C149.137 106.254 149.038 106.039 149.117 105.852C151.2 100.755 153.343 95.482 156.835 91.0333C160.078 86.8893 164.205 84.0417 168.471 82.9517C168.659 83.1478 168.848 83.344 169.026 83.5699Z" fill="#331510"/>
<path d="M157.183 69.9696C157.034 71.2758 156.855 72.5918 156.637 73.9073C154.931 84.2086 153.86 94.7256 151.41 104.929C150.983 106.726 150.517 108.503 149.991 110.271C145.963 123.871 139.515 132.12 125.787 135.086C117.355 136.903 104.142 136.893 95.5813 135.861C88.588 135.027 81.5944 132.562 76.4957 127.75C72.399 123.871 69.6908 118.716 67.7763 113.099C65.0783 105.174 63.9573 96.336 62.6776 88.9121C60.1281 74.0937 59.0172 57.8512 64.6415 43.5535C71.3273 26.5746 88.082 14.0247 106.572 13.0623C125.777 12.0706 143.721 23.0199 152.332 39.8809C157.223 49.4755 158.353 59.59 157.183 69.9696Z" fill="#E1876A"/>
<path d="M59.6169 80.8186C61.1759 83.9709 63.7425 86.7133 66.0123 89.4096C68.8897 85.8797 70.0132 85.2395 71.6758 82.7038C76.9808 74.6132 77.1545 64.4518 78.2372 54.8662C78.678 50.9636 79.1192 47.0316 78.8004 43.1176C78.5642 40.2202 77.8779 37.2833 76.2239 34.8818C74.5699 32.4799 71.8197 30.6893 68.8836 30.7268C65.6408 30.768 62.805 32.948 60.7624 35.4413C55.8391 41.4501 54.1712 49.5657 54.5916 57.2917C55.0125 65.017 55.649 72.7953 59.6169 80.8186Z" fill="#331510"/>
<path d="M157.745 66.407C160.784 53.7454 157.191 43.6896 151.449 34.6802C149.64 31.8415 147.665 29.0918 145.335 26.654C137.475 18.4284 126.083 14.306 114.761 12.7033C105.544 11.3992 95.9631 11.6166 87.1593 14.6134C78.355 17.6103 70.3814 23.5865 66.166 31.804C71.075 31.9068 75.8707 34.7952 78.4227 38.9478C86.5186 43.2455 94.8026 47.4674 103.634 49.9704C112.466 52.4739 121.77 53.621 130.887 52.5053C128.139 48.8767 125.014 45.4496 122.265 41.8215C135.883 46.6595 148.008 55.8129 157.745 66.407Z" fill="#331510"/>
<path d="M147.506 52.0184C148.99 62.8877 149.424 75.595 150.908 86.4647C152.129 85.0513 154.839 82.9149 156.399 81.8795C157.026 77.5732 157.227 73.3301 157.667 69.0014C158.316 62.6214 158.414 55.6677 154.696 50.4165C153.793 49.1402 152.637 47.9743 151.169 47.4111C149.701 46.8479 147.881 47.0013 146.75 48.0848L147.506 52.0184Z" fill="#331510"/>
<path d="M153.947 79.8206C152.396 95.8115 153.182 114.738 141.064 127.154C136.948 131.371 131.519 133.848 125.787 135.087C117.355 136.903 104.142 136.893 95.5813 135.862C88.5881 135.027 81.5944 132.563 76.4957 127.751C72.399 123.872 69.6909 118.716 67.7763 113.099C67.2604 110.919 66.9134 108.7 66.6952 106.5C66.3975 103.593 66.4669 100.756 66.5961 97.9373C66.5961 97.8883 66.5961 97.839 66.6059 97.7999C66.6059 97.6722 66.6157 97.5544 66.6259 97.4365C66.8143 93.1942 67.1022 88.9915 66.4375 84.6509C67.1418 86.0354 67.7469 87.479 68.3121 88.9519C70.6928 95.0701 72.3693 101.62 77.1804 105.911C80.2059 108.592 84.263 110.065 88.3006 109.928C93.3197 109.741 97.9225 107.217 102.426 104.968C106.93 102.73 111.88 100.648 116.84 101.453C121.641 102.229 125.698 105.597 130.469 106.559C135.955 107.659 141.828 105.253 145.517 101.021C149.198 96.7885 150.795 90.9554 150.487 85.3385C150.398 83.62 150.953 81.9114 151.092 80.1929C151.4 80.2618 151.638 79.8296 151.945 79.7904C152.253 79.7411 153.976 79.516 153.947 79.8206Z" fill="#331510"/>
<path d="M66.6325 97.6844C66.6325 97.6844 66.3793 92.4194 65.3663 88.6583C64.3905 85.0359 63.1504 82.7661 63.1504 82.7661L65.5564 81.7633C65.5564 81.7633 67.0126 85.148 67.7723 87.2791C68.5321 89.4103 69.7987 94.2365 69.7987 94.2365L70.1151 98.1228L66.5693 97.9348L66.6325 97.6844Z" fill="#331510"/>
<path d="M112.105 102.03C110.567 102.03 108.994 101.538 107.694 100.617C107.561 100.523 107.428 100.423 107.295 100.323C106.709 99.8843 106.155 99.4696 105.526 99.4541C105.206 99.4647 104.867 99.5499 104.515 99.6592C104.187 99.7607 103.848 99.8664 103.481 99.8933C102.603 99.952 101.747 99.5206 101.323 98.8106C100.872 98.0517 100.98 97.0163 101.575 96.4026C101.717 96.2545 101.951 96.2521 102.099 96.3944C102.245 96.5367 102.249 96.7712 102.107 96.918C101.742 97.2936 101.678 97.9583 101.96 98.4317C102.238 98.8999 102.837 99.1976 103.427 99.1548C103.71 99.1344 103.994 99.0459 104.295 98.9521C104.689 98.8302 105.096 98.7037 105.544 98.7148C106.41 98.7356 107.116 99.2649 107.739 99.7314C107.867 99.8272 107.994 99.9226 108.122 100.013C109.682 101.118 111.669 101.541 113.436 101.146C115.27 100.737 116.867 99.4035 117.506 97.7479C118.034 96.3838 117.966 94.8529 117.842 93.2736C117.32 86.6151 116.212 79.9578 114.549 73.4857C114.498 73.288 114.617 73.0861 114.815 73.0351C115.012 72.9842 115.215 73.1028 115.266 73.3014C116.939 79.8151 118.054 86.5148 118.58 93.2156C118.71 94.8831 118.78 96.5053 118.197 98.0146C117.459 99.923 115.697 101.4 113.598 101.869C113.111 101.977 112.61 102.03 112.105 102.03Z" fill="#331510"/>
<path d="M128.373 108.387C124.957 108.779 121.675 107.155 118.306 106.477C115.304 105.873 112.15 106.031 109.225 106.93C107.58 107.436 106.016 108.169 104.384 108.713C101.43 109.699 98.3002 110.054 95.1875 110.227C95.8918 113.033 96.9125 116.007 98.6953 118.297C100.478 120.587 103.203 122.306 106.124 122.299C108.311 122.294 110.388 121.349 112.563 121.126C116.142 120.758 119.926 122.334 123.267 121.01C125.592 120.089 127.206 117.883 127.973 115.524C128.741 113.165 128.403 110.866 128.373 108.387Z" fill="#E1876A"/>
<path d="M112.342 111.578C110.464 111.578 108.588 110.719 107.402 109.272C107.26 109.098 107.286 108.843 107.459 108.7C107.632 108.559 107.888 108.584 108.031 108.757C109.208 110.194 111.165 110.964 113.02 110.723C114.873 110.479 116.56 109.23 117.318 107.539C117.409 107.335 117.649 107.242 117.854 107.335C118.059 107.427 118.15 107.667 118.058 107.871C117.188 109.813 115.251 111.248 113.126 111.527C112.866 111.561 112.604 111.578 112.342 111.578Z" fill="#331510"/>
<path d="M95.1178 82.6456C95.1814 85.1715 93.1649 87.2696 90.6133 87.3328C88.0622 87.396 85.942 85.3994 85.8784 82.874C85.8148 80.3485 87.8313 78.25 90.3825 78.1868C92.9345 78.1236 95.0542 80.1197 95.1178 82.6456Z" fill="#331510"/>
<path d="M136.828 80.6676C136.892 83.1934 134.875 85.292 132.324 85.3548C129.773 85.4176 127.653 83.4214 127.589 80.8959C127.526 78.3705 129.542 76.2719 132.093 76.2087C134.645 76.1455 136.765 78.1417 136.828 80.6676Z" fill="#331510"/>
<path d="M82.6028 67.0434C80.8399 68.403 79.5913 70.4962 79.5554 72.708C79.5403 73.637 79.7723 74.6332 80.4729 75.251C81.0324 75.7441 81.8044 75.9223 82.5486 76.0063C85.5238 76.3411 88.4848 75.4472 91.3394 74.5521C92.9033 74.0615 94.6283 73.4351 95.3501 71.9765C95.6624 71.3452 95.7432 70.6205 95.6885 69.9195C95.5633 68.3218 94.7253 66.7914 93.4412 65.8151C90.452 63.5433 85.3326 64.9387 82.6028 67.0434Z" fill="#331510"/>
<path d="M137.065 64.208C139.044 65.2365 140.647 67.0776 141.079 69.2483C141.26 70.1598 141.211 71.1813 140.631 71.9121C140.169 72.4956 139.441 72.8063 138.724 73.0196C135.856 73.8711 132.781 73.5114 129.812 73.1314C128.185 72.9234 126.375 72.6094 125.403 71.3004C124.983 70.7339 124.773 70.035 124.702 69.3356C124.539 67.7411 125.089 66.0879 126.179 64.9021C128.714 62.1409 134.002 62.6156 137.065 64.208Z" fill="#331510"/>
<path d="M111.385 162.334C103.926 162.334 96.3623 160.605 89.586 157.131C89.4041 157.038 89.3323 156.815 89.4257 156.633C89.5183 156.451 89.7409 156.377 89.924 156.472C103.682 163.525 120.736 163.28 133.369 155.847C133.544 155.743 133.772 155.802 133.876 155.978C133.979 156.155 133.921 156.381 133.744 156.485C127.125 160.379 119.314 162.334 111.385 162.334Z" fill="#FADED3"/>
<path d="M111.248 162.01C111.253 161.805 111.42 161.624 111.628 161.65C111.832 161.655 111.993 161.825 111.987 162.03" fill="#FADED3"/>
</svg>
