<svg width="214" height="212" viewBox="0 0 214 212" fill="none" xmlns="http://www.w3.org/2000/svg">
<path d="M107.253 211.374C103.333 211.389 99.4111 211.185 95.5099 210.754C74.5793 208.442 54.4924 199.634 38.3491 186.156C8.2506 161.029 -5.54041 119.82 3.63087 81.6402C12.8163 43.4016 45.1819 10.9882 83.9398 3.02864C105.988 -1.49879 128.856 0.487575 149.616 9.31871C160.875 14.1081 171.338 20.8032 180.266 29.1811C214.176 61.0019 223.385 113.507 201.667 154.664C191.109 174.671 174.229 190.861 153.833 200.629C139.35 207.564 123.314 211.311 107.253 211.374Z" fill="white"/>
<path d="M208.515 105.939C208.515 107.198 208.495 108.447 208.438 109.687C208.438 109.859 208.428 110.04 208.419 110.212C207.783 125.204 203.794 139.329 197.166 151.889C191.087 163.439 182.773 173.653 172.811 181.989C172.214 182.485 171.607 182.98 171 183.467C169.95 184.306 168.89 185.117 167.802 185.909C151.096 198.183 130.412 205.431 108.013 205.431C88.7355 205.431 70.7297 200.052 55.431 190.734C52.9552 189.228 50.5563 187.616 48.2248 185.909C47.3866 185.289 46.5582 184.659 45.7391 184.021C40.5077 179.939 35.7004 175.342 31.3942 170.325C31.269 170.182 31.1439 170.039 31.0187 169.896C29.0727 167.598 27.2227 165.204 25.4888 162.734C14.1594 146.635 7.51172 127.065 7.51172 105.94C7.51172 98.9111 8.24397 92.0539 9.65027 85.4353C9.71763 85.111 9.78499 84.7962 9.86234 84.4719C13.4076 68.497 20.8353 53.9625 31.1152 41.8888C31.2212 41.7553 31.3368 41.6123 31.4715 41.4788C47.9554 22.2901 71.6836 9.38643 98.4664 6.89735C98.7363 6.86866 98.9962 6.83997 99.2661 6.8304C102.146 6.57301 105.066 6.4491 108.014 6.4491C119.69 6.4491 130.894 8.41384 141.318 12.0473C141.472 12.0951 141.626 12.1425 141.771 12.2094C153.977 16.5011 165.095 23.0818 174.603 31.4268C174.738 31.5316 174.873 31.6464 174.999 31.7703C185.48 41.0501 193.977 52.4755 199.796 65.3505C199.873 65.5031 199.941 65.6461 199.999 65.7987C205.48 78.0712 208.515 91.6522 208.515 105.939Z" fill="#F1BD06"/>
<path d="M37.4257 42.8984C35.3063 42.7458 33.1964 42.3454 31.1152 41.8876C31.2213 41.7541 31.3369 41.6111 31.4716 41.4776C33.4563 41.9067 35.4601 42.2784 37.4639 42.4315C48.1288 43.2327 58.36 37.9489 65.1329 33.9051C73.3411 29.003 81.0483 23.2427 88.0423 16.7763C89.632 15.3077 91.2121 13.7816 92.744 12.2938C94.6131 10.4913 96.5013 8.66 98.4665 6.89568C98.7363 6.86699 98.9962 6.8383 99.2661 6.82874C97.1371 8.7074 95.0946 10.6817 93.0812 12.6369C91.5494 14.1247 89.9597 15.6507 88.3704 17.1194C81.3473 23.614 73.611 29.3935 65.3836 34.3147C58.5525 38.3872 48.2253 43.7184 37.4257 42.8984Z" fill="#E15555"/>
<path d="M141.771 12.2076C140.075 17.911 134.796 22.5839 131.231 25.2069C115.248 36.9471 95.7683 43.2035 76.9243 49.2499C56.8565 55.6876 36.0956 62.3444 19.7178 75.6581C16.076 78.6145 12.7137 81.8953 9.65039 85.4335C9.71775 85.1092 9.78512 84.7944 9.86246 84.4701C12.7815 81.1514 15.9704 78.0802 19.4096 75.2859C35.8644 61.9245 56.6644 55.2485 76.78 48.7917C95.5854 42.7644 115.027 36.5176 130.942 24.8248C134.459 22.2401 139.671 17.6241 141.318 12.045C141.472 12.0933 141.626 12.1411 141.771 12.2076Z" fill="#E15555"/>
<path d="M129.642 54.0567C122.223 51.4055 116.192 51.3007 111.703 53.7419C107.3 56.1358 104.15 61.2857 103.071 67.8569C102.503 71.2616 102.455 74.7807 102.416 78.1858C102.387 80.4557 102.349 82.8113 102.166 85.1096C101.723 90.7268 99.7862 101.075 91.8574 107.321C82.3389 114.818 68.5816 112.948 58.8901 108.685C58.4469 108.494 57.994 108.294 57.5512 108.084C54.4492 106.692 51.2507 105.242 47.9367 105.595C43.3606 106.082 40.0752 109.839 38.5338 113.196C36.742 117.088 36.3757 121.427 36.0289 125.623L33.2737 159.003C32.9364 163.123 32.5127 166.947 31.395 170.324C31.2699 170.181 31.1447 170.038 31.0195 169.895C32.0695 166.624 32.4645 162.933 32.7922 158.965L35.5474 125.586C35.9037 121.351 36.2601 116.974 38.0909 112.997C39.6902 109.525 43.1103 105.625 47.8888 105.119C51.3281 104.757 54.5943 106.235 57.7445 107.656C58.1974 107.856 58.6406 108.056 59.0839 108.257C68.6506 112.453 82.2054 114.313 91.5601 106.95C99.3442 100.818 101.252 90.6133 101.685 85.0721C101.868 82.7831 101.907 80.4466 101.936 78.1862C101.984 74.7623 102.022 71.2242 102.591 67.7812C103.709 61.067 106.945 55.7932 111.474 53.3228C116.088 50.8146 122.254 50.9098 129.807 53.6089C131.3 54.1428 132.813 54.7436 134.277 55.3162C138.525 57.014 142.929 58.7592 147.533 59.0835C154.325 59.5605 161.329 56.6897 165.799 51.5967C169.961 46.8473 171.83 40.6196 173.641 34.5919C173.959 33.5428 174.277 32.4841 174.605 31.4254C174.739 31.5302 174.875 31.645 175 31.7689C174.701 32.7606 174.393 33.7527 174.104 34.7253C172.273 40.8004 170.395 47.0855 166.165 51.9015C161.599 57.1184 154.441 60.0461 147.495 59.5601C142.822 59.2262 138.381 57.4618 134.094 55.7641C132.638 55.1819 131.135 54.5906 129.642 54.0567Z" fill="#E15555"/>
<path d="M208.438 109.687C208.438 109.859 208.428 110.04 208.419 110.212C207.272 110.622 206.039 110.813 204.729 110.698C200.933 110.374 198.11 107.637 195.374 104.985C192.888 102.582 190.326 100.102 187.06 99.4156C182.002 98.3569 177.06 102.105 174.796 106.358C172.638 110.412 172.098 115.123 171.578 119.682L171.414 121.122C169.314 138.956 164.323 154.054 156.607 166.003C154.795 168.807 152.502 171.878 149.227 173.423C145.017 175.407 139.343 174.53 135.123 171.23C131.703 168.559 129.054 164.43 127.223 158.946C121.221 140.94 126.973 121.646 132.657 106.845C135.566 99.2821 139.304 90.5745 144.998 83.2407C151.038 75.4869 158.765 70.1653 166.78 68.2579C171.78 67.0658 177.011 67.1327 182.079 67.1897C184.401 67.2184 186.8 67.2471 189.15 67.161C192.387 67.0275 196.193 66.5697 199.796 65.3489C199.873 65.5015 199.941 65.6445 199.998 65.7971C196.867 66.8558 193.245 67.4758 189.17 67.6379C186.809 67.7236 184.401 67.6953 182.079 67.6666C177.041 67.6093 171.828 67.5427 166.886 68.7253C158.987 70.604 151.347 75.8686 145.383 83.5367C139.719 90.8135 136 99.4921 133.11 107.017C127.454 121.742 121.722 140.931 127.676 158.794C129.478 164.192 132.079 168.245 135.412 170.849C139.497 174.044 144.97 174.903 149.015 172.995C152.185 171.498 154.43 168.494 156.202 165.757C163.88 153.864 168.842 138.824 170.933 121.066L171.097 119.636C171.626 115.029 172.166 110.27 174.372 106.131C176.723 101.725 181.867 97.8434 187.156 98.9494C190.567 99.6646 193.178 102.202 195.711 104.643C198.505 107.352 201.145 109.917 204.767 110.222C206.068 110.326 207.301 110.116 208.438 109.687Z" fill="#E15555"/>
<path d="M197.166 151.889C191.087 163.438 182.773 173.653 172.811 181.988C172.214 182.484 171.234 181.411 170.627 181.897C169.577 182.736 167.514 181.339 166.425 182.13L48.7396 183.774C47.9013 183.154 46.5582 184.658 45.739 184.019C37.974 177.954 31.1434 170.781 25.4883 162.732C27.0588 153.634 30.9509 144.898 36.8372 137.974C40.9122 133.196 45.922 129.085 48.8606 123.544C51.1825 119.176 52.0399 114.207 52.6275 109.305C54.4388 94.2269 53.9281 78.8912 56.6929 63.9562C59.4577 49.0213 66.134 33.9142 78.851 25.4262C90.0456 17.9489 104.371 16.6233 117.811 17.9298C124.015 18.5307 131.578 20.3998 137.734 21.3536C141.8 21.9832 145.085 24.8727 148.052 27.6957C153.014 32.426 157.879 37.3855 161.357 43.2793C166.125 51.3665 168.062 60.8181 168.64 70.1644C169.228 79.5203 168.534 88.8953 168.448 98.2608C168.371 106.119 168.824 114.369 172.899 121.121C176.627 127.282 182.918 131.431 187.812 136.733C191.925 141.179 194.97 146.328 197.166 151.889Z" fill="#331510"/>
<path d="M133.92 161.359C130.432 160.358 127.735 159.633 126.434 159.118C122.446 157.544 121.463 148.684 121.261 142.657C121.146 139.395 121.271 136.963 121.271 136.963L110.712 135.084L110.693 134.77L109.835 134.922L108.968 134.77L108.959 135.084L98.3999 136.963C98.3999 136.963 98.5155 139.357 98.419 142.58C98.2165 148.608 97.2339 157.535 93.2263 159.118C92.4458 159.423 91.1551 159.814 89.4785 160.3L91.168 172.7L108.973 173.48L118.782 178.016L136.001 169.446L133.92 161.359Z" fill="#FFDFA6"/>
<g opacity="0.31">
<path d="M133.92 161.359C130.432 160.358 127.735 159.633 126.434 159.118C122.446 157.544 121.463 148.684 121.261 142.657C121.146 139.395 121.271 136.963 121.271 136.963L110.712 135.084L110.693 134.77L109.835 134.922L108.968 134.77L108.959 135.084L98.3999 136.963C98.3999 136.963 98.5155 139.357 98.419 142.58C98.2165 148.608 97.2339 157.535 93.2263 159.118C92.4458 159.423 91.1551 159.814 89.4785 160.3L91.3077 181.673L110.694 174.474L125.883 183.174L133.92 161.359Z" fill="#E15555"/>
</g>
<path d="M121.262 142.656C118.015 144.144 114.508 145.041 110.934 145.203C106.637 145.394 102.282 144.459 98.4195 142.58C98.516 139.357 98.4004 136.963 98.4004 136.963L108.959 135.084L108.969 134.77L109.836 134.922L110.693 134.77L110.712 135.084L121.271 136.963C121.271 136.963 121.146 139.395 121.262 142.656Z" fill="#A65236"/>
<path d="M172.783 93.9221C171.154 98.6046 167.542 102.563 163.042 104.565C159.468 106.167 155.403 106.511 151.607 105.624C151.414 106.616 151.222 107.598 151.01 108.59V108.6C150.152 112.777 149.179 116.859 148.091 120.693C147.609 122.381 146.858 123.935 145.894 125.375C145.894 125.375 145.894 125.375 145.885 125.385C133.168 144.125 81.607 141.636 72.763 131.307C71.4914 129.82 70.3932 127.664 69.4298 125.041C67.7436 120.492 66.4912 114.532 65.5473 108.247C65.297 108.294 65.0462 108.342 64.7863 108.39C61.3276 108.971 57.6858 108.533 54.4587 107.093C49.9595 105.081 46.3565 101.132 44.7186 96.4494C43.8803 94.0651 43.553 91.4617 44.131 88.9913C44.4874 87.4366 45.2292 86.0062 46.2313 84.7853C46.3856 84.5849 46.5494 84.3944 46.7324 84.2036C48.6401 82.1436 51.3276 80.7606 54.1214 80.465C57.3104 80.1311 60.5375 81.1232 63.168 82.9732C63.1293 82.1532 63.091 81.3519 63.0619 80.608C62.8016 74.9142 62.7634 71.1282 62.7634 71.1282L62.9176 71.1186C62.7634 69.5452 62.6769 67.9522 62.6769 66.3213C62.6769 39.9797 83.8137 18.6262 109.893 18.6262C116.174 18.6262 122.176 19.8566 127.648 22.117C127.889 22.2122 128.12 22.3174 128.352 22.4222C144.315 29.2795 155.751 44.7487 156.974 63.0601L157.099 63.041C157.099 63.041 157.08 63.3366 157.032 63.8992C157.08 64.7005 157.099 65.5109 157.099 66.3218C157.099 70.2417 156.618 74.0373 155.741 77.6802C155.692 78.1189 155.645 78.5672 155.596 79.0154C155.567 79.2441 155.539 79.4732 155.509 79.7019C155.981 79.435 156.463 79.1872 156.964 78.9867C157.157 78.8915 157.369 78.815 157.571 78.7389C159.421 78.0333 161.405 77.7281 163.38 77.9376C165.509 78.1572 167.571 79.0154 169.286 80.3315C169.517 80.4937 169.739 80.675 169.951 80.8654C171.617 82.3436 172.86 84.2797 173.38 86.4636C173.948 88.9244 173.611 91.5378 172.783 93.9221Z" fill="#FFDFA6"/>
<g opacity="0.31">
<path d="M172.783 93.9221C171.154 98.6046 167.542 102.563 163.042 104.565C159.468 106.167 155.403 106.511 151.607 105.624C151.414 106.616 151.222 107.598 151.01 108.59V108.6C150.152 112.777 149.179 116.859 148.091 120.693C147.609 122.381 146.858 123.935 145.894 125.375C145.894 125.375 145.894 125.375 145.885 125.385C133.168 144.125 81.607 141.636 72.763 131.307C71.4914 129.82 70.3932 127.664 69.4298 125.041C67.7436 120.492 66.4912 114.532 65.5473 108.247C65.297 108.294 65.0462 108.342 64.7863 108.39C61.3276 108.971 57.6858 108.533 54.4587 107.093C49.9595 105.081 46.3565 101.132 44.7186 96.4494C43.8803 94.0651 43.553 91.4617 44.131 88.9913C44.4874 87.4366 45.2292 86.0062 46.2313 84.7853C46.3856 84.5849 46.5494 84.3944 46.7324 84.2036C48.6401 82.1436 51.3276 80.7606 54.1214 80.465C57.3104 80.1311 60.5375 81.1232 63.168 82.9732C63.1293 82.1532 63.091 81.3519 63.0619 80.608C62.8016 74.9142 62.7634 71.1282 62.7634 71.1282L62.9176 71.1186C62.7634 69.5452 62.6769 67.9522 62.6769 66.3213C62.6769 39.9797 83.8137 18.6262 109.893 18.6262C116.174 18.6262 122.176 19.8566 127.648 22.117C127.889 22.2122 128.12 22.3174 128.352 22.4222C144.315 29.2795 155.751 44.7487 156.974 63.0601L157.099 63.041C157.099 63.041 157.08 63.3366 157.032 63.8992C157.08 64.7005 157.099 65.5109 157.099 66.3218C157.099 70.2417 156.618 74.0373 155.741 77.6802C155.692 78.1189 155.645 78.5672 155.596 79.0154C155.567 79.2441 155.539 79.4732 155.509 79.7019C155.981 79.435 156.463 79.1872 156.964 78.9867C157.157 78.8915 157.369 78.815 157.571 78.7389C159.421 78.0333 161.405 77.7281 163.38 77.9376C165.509 78.1572 167.571 79.0154 169.286 80.3315C169.517 80.4937 169.739 80.675 169.951 80.8654C171.617 82.3436 172.86 84.2797 173.38 86.4636C173.948 88.9244 173.611 91.5378 172.783 93.9221Z" fill="#E15555"/>
</g>
<path d="M169.95 80.8655C167.879 81.4854 165.769 82.8015 163.553 84.8615C159.372 88.724 156.183 93.5974 154.324 98.9477C154.275 99.1003 154.131 99.1864 153.986 99.1864C153.948 99.1864 153.91 99.1864 153.871 99.1672C153.678 99.1099 153.582 98.9003 153.64 98.719C155.537 93.2543 158.794 88.2757 163.062 84.3371C165.2 82.3532 167.253 81.0276 169.285 80.3315C169.517 80.4937 169.738 80.675 169.95 80.8655Z" fill="#331510"/>
<path d="M62.4058 100.817C62.3671 100.827 62.3289 100.836 62.2902 100.836C62.1359 100.836 62.0012 100.741 61.9434 100.598C59.3998 93.4548 53.4075 87.4276 46.2305 84.7855C46.3847 84.585 46.5486 84.3946 46.7315 84.2037C54.0919 86.998 60.0073 92.9875 62.6274 100.36C62.6948 100.55 62.5887 100.751 62.4058 100.817Z" fill="#331510"/>
<path d="M104.675 114.393C103.505 114.393 102.333 114.256 101.187 113.976C100.912 113.909 100.742 113.631 100.81 113.355C100.877 113.079 101.153 112.907 101.431 112.977C105.395 113.946 109.709 113.077 112.971 110.655C113.201 110.485 113.52 110.533 113.691 110.761C113.861 110.989 113.812 111.311 113.585 111.481C111.021 113.383 107.855 114.393 104.675 114.393Z" fill="#331510"/>
<path d="M135.168 80.1999C134.087 79.7758 133.148 79.4049 132.2 79.0951C131.255 78.7915 130.328 78.5287 129.377 78.3325C128.427 78.1366 127.462 78.011 126.465 77.9503C125.461 77.8734 124.444 77.9033 123.302 77.9395L123.281 77.9399C122.979 77.9495 122.727 77.7125 122.717 77.4106C122.712 77.2509 122.777 77.1033 122.884 76.9998C123.789 76.1245 124.969 75.591 126.194 75.2874C127.425 74.9997 128.721 74.9801 129.972 75.203C131.222 75.4251 132.438 75.8929 133.482 76.6197C134.523 77.3395 135.419 78.3013 135.903 79.4818C136.019 79.765 135.884 80.0889 135.601 80.2049C135.464 80.261 135.317 80.2585 135.189 80.2086L135.168 80.1999Z" fill="#331510"/>
<g opacity="0.59">
<path d="M94.949 113.34C94.949 121.818 88.0127 128.685 79.4577 128.685C75.6234 128.685 72.1264 127.311 69.4286 125.042C67.7425 120.493 66.49 114.532 65.5461 108.247C65.2958 108.295 65.045 108.342 64.7852 108.39C66.8659 102.353 72.6466 98.0042 79.4577 98.0042C88.0127 98.0037 94.949 104.871 94.949 113.34Z" fill="#FFDFA6"/>
</g>
<g opacity="0.59">
<path d="M151.009 108.59C151.009 108.59 151.018 108.59 151.009 108.6C150.151 112.777 149.178 116.859 148.089 120.693C147.608 122.381 146.856 123.935 145.893 125.375C145.893 125.375 145.893 125.375 145.884 125.385C143.244 127.445 139.91 128.685 136.279 128.685C127.714 128.685 120.777 121.818 120.777 113.34C120.777 104.871 127.714 98.0038 136.279 98.0038C143.157 98.0038 148.995 102.448 151.009 108.59Z" fill="#FFDFA6"/>
</g>
<path d="M73.8722 78.8845C74.377 77.8008 75.2266 76.9122 76.2021 76.2228C77.1822 75.533 78.3094 75.0527 79.4816 74.7966C80.6534 74.5375 81.8746 74.4963 83.0535 74.693C84.2273 74.903 85.3729 75.3246 86.3044 76.0635C86.5185 76.2336 86.5547 76.5446 86.3846 76.7592C86.2869 76.8827 86.1418 76.9467 85.9958 76.9467H85.9779C84.8906 76.9388 83.9018 76.9363 82.9275 77.0307C81.9574 77.1114 81.0147 77.2603 80.0879 77.4761C79.1619 77.6948 78.2541 77.9751 77.3451 78.3164C76.4324 78.6578 75.5393 79.0737 74.5496 79.539L74.5351 79.5456C74.2864 79.6625 73.9899 79.5556 73.8731 79.3069C73.8082 79.168 73.8132 79.0129 73.8722 78.8845Z" fill="#331510"/>
<path d="M88.9041 90.7694C88.9041 93.3225 86.8134 95.3924 84.2341 95.3924C81.6552 95.3924 79.5645 93.3225 79.5645 90.7694C79.5645 88.2163 81.6552 86.1467 84.2341 86.1467C86.8134 86.1467 88.9041 88.2163 88.9041 90.7694Z" fill="#331510"/>
<path d="M131.094 89.8131C131.094 92.3662 129.003 94.4361 126.424 94.4361C123.845 94.4361 121.754 92.3662 121.754 89.8131C121.754 87.26 123.845 85.1904 126.424 85.1904C129.002 85.1904 131.094 87.26 131.094 89.8131Z" fill="#331510"/>
<path d="M103.06 107.69C102.207 107.691 101.304 107.584 100.371 107.323C96.2639 106.175 99.773 86.2225 100.519 82.2344C100.567 81.9786 100.819 81.8144 101.067 81.8585C101.323 81.9063 101.492 82.1524 101.444 82.4078C99.6569 91.9724 98.2215 105.745 100.625 106.417C105.197 107.697 109.142 104.8 109.181 104.77C109.391 104.614 109.684 104.656 109.84 104.864C109.995 105.071 109.954 105.366 109.746 105.522C109.603 105.629 106.811 107.69 103.06 107.69Z" fill="#331510"/>
<path d="M172.811 181.988C172.213 182.484 171.606 182.979 170.999 183.466C164.67 188.511 157.704 192.822 150.248 196.246C146.886 197.791 143.427 199.154 139.881 200.318C129.872 203.637 119.159 205.43 108.012 205.43C98.0893 205.43 88.4939 203.999 79.4378 201.348C75.9408 200.327 72.5302 199.116 69.2066 197.733C64.4185 195.749 59.8133 193.403 55.4302 190.733C52.0583 188.682 48.8307 186.441 45.7383 184.019C45.8539 183.761 45.979 183.513 46.1138 183.265C46.268 182.979 46.4219 182.702 46.5857 182.426C48.1658 179.813 50.4682 177.466 53.2334 175.359C53.5224 175.13 53.8209 174.911 54.1195 174.691C58.3683 171.63 63.5611 169.093 68.7729 167.004C69.1679 166.842 69.563 166.69 69.958 166.537C70.2183 166.432 70.4878 166.327 70.7481 166.232C72.3747 165.612 74.0401 168.77 75.6223 168.235C77.3009 167.668 78.8923 163.413 80.4495 162.932C81.1335 162.722 81.808 162.522 82.4533 162.331C82.8192 162.217 83.176 162.112 83.5228 162.007C85.7965 161.349 87.8194 160.776 89.4765 160.299C93.4937 164.238 98.9563 166.689 104.563 167.586C110.989 168.616 117.607 167.758 123.841 165.926C127.386 164.877 130.922 163.465 133.918 161.358C134.882 161.635 135.912 161.93 136.992 162.255C137.387 162.369 137.782 162.493 138.186 162.608C138.629 162.751 139.082 162.884 139.535 163.027C141.205 163.545 142.547 167.338 144.342 167.954C145.819 168.461 147.737 165.775 149.246 166.355C151.221 167.109 153.215 167.929 155.161 168.825C155.585 169.016 156.009 169.216 156.433 169.417C159.014 170.637 161.51 171.992 163.784 173.48C164.102 173.68 164.41 173.89 164.708 174.109C167.589 176.074 170.094 178.286 171.944 180.738C172.136 181.005 172.329 181.262 172.502 181.529C172.608 181.682 172.714 181.835 172.811 181.988Z" fill="#E15555"/>
<path d="M138.186 162.608C129.707 168.369 119.457 171.478 109.178 171.478C106.288 171.478 103.397 171.23 100.536 170.724C95.2183 169.789 87.9831 167.567 82.4531 162.332C82.819 162.217 83.1758 162.112 83.5226 162.007C88.8214 166.824 95.642 168.893 100.71 169.79C113.195 171.983 126.432 169.179 136.991 162.256C137.386 162.37 137.781 162.494 138.186 162.608Z" fill="#FFB9C2"/>
<path d="M156.433 169.418C143.745 173.595 130.546 175.979 117.184 176.513C115.45 176.58 113.745 176.618 112.049 176.618C95.5076 176.618 80.7099 173.337 68.7734 167.005C69.1685 166.843 69.5635 166.69 69.9585 166.537C82.8489 173.175 99.0337 176.285 117.146 175.559C130.075 175.044 142.859 172.784 155.162 168.826C155.585 169.017 156.009 169.217 156.433 169.418Z" fill="#FFB9C2"/>
<path d="M164.708 174.11C154.583 178.631 142.973 181.549 130.093 182.818C124.408 183.38 118.753 183.6 113.252 183.6C104.216 183.6 95.5934 183.009 87.8571 182.341C76.9128 181.396 64.4562 180.004 53.2324 175.36C53.5214 175.131 53.82 174.911 54.1185 174.692C65.0915 179.117 77.2401 180.471 87.9436 181.396C100.342 182.455 115.035 183.342 130.006 181.873C142.549 180.633 153.879 177.82 163.783 173.48C164.101 173.681 164.409 173.891 164.708 174.11Z" fill="#FFB9C2"/>
<path d="M172.502 181.529C157.473 189.798 139.756 191.887 125.883 192.764C120.151 193.127 114.544 193.307 109.071 193.307C85.5644 193.307 64.4662 189.951 46.1133 183.265C46.2675 182.979 46.4214 182.702 46.5852 182.426C69.0323 190.58 95.6704 193.727 125.815 191.811C139.553 190.943 157.106 188.883 171.943 180.738C172.136 181.005 172.329 181.262 172.502 181.529Z" fill="#FFB9C2"/>
<path d="M79.4384 201.348C75.9414 200.328 72.5309 199.116 69.2073 197.733C69.1881 197.552 69.1781 197.38 69.159 197.199C68.2534 186.87 68.7927 176.418 70.7487 166.232C74.1014 164.954 77.4251 163.867 80.4501 162.932C78.0708 175.617 77.6562 188.597 79.4384 201.348Z" fill="#7EA8C5"/>
<path d="M150.373 194.767C150.325 195.263 150.287 195.759 150.248 196.246C146.886 197.791 143.427 199.154 139.882 200.318C141.78 187.967 141.597 175.369 139.535 163.028C142.579 163.972 145.903 165.068 149.246 166.356C150.826 175.722 151.212 185.297 150.373 194.767Z" fill="#7EA8C5"/>
<path d="M75.847 192.563C75.847 194.042 74.6357 195.241 73.1413 195.241C71.6468 195.241 70.4355 194.042 70.4355 192.563C70.4355 191.084 71.6468 189.885 73.1413 189.885C74.6357 189.885 75.847 191.084 75.847 192.563Z" fill="white"/>
<path d="M148.409 192.563C148.409 194.042 147.198 195.241 145.704 195.241C144.209 195.241 142.998 194.042 142.998 192.563C142.998 191.084 144.209 189.885 145.704 189.885C147.198 189.885 148.409 191.084 148.409 192.563Z" fill="white"/>
<path d="M110.621 190.617L110.509 190.434C107.244 185.149 104.583 179.758 102.01 174.544C99.4401 169.336 96.783 163.95 93.5234 158.674L93.7268 158.548C96.9918 163.833 99.6522 169.224 102.225 174.438C104.765 179.587 107.392 184.909 110.6 190.126C112.004 187.343 113.558 184.503 115.063 181.754C119.262 174.083 123.604 166.151 125.649 157.853L125.881 157.91C123.829 166.238 119.48 174.185 115.274 181.869C113.736 184.679 112.145 187.584 110.718 190.424L110.621 190.617Z" fill="#331510"/>
<path d="M113.725 192.887C113.725 194.546 112.367 195.891 110.692 195.891C109.016 195.891 107.658 194.546 107.658 192.887C107.658 191.229 109.016 189.884 110.692 189.884C112.367 189.884 113.725 191.229 113.725 192.887Z" fill="#331510"/>
<path d="M166.039 75.3871H136.77L132.589 27.4155L125.451 73.4415L105.441 73.9471C103.196 68.5586 101.712 63.666 100.315 57.8579C100.219 63.2752 100.595 68.7016 101.443 74.0519L86.3655 74.4332C84.3908 66.9273 83.6872 59.317 83.9957 51.5059C81.7994 58.9544 81.0958 66.8321 81.9245 74.5476L58.7934 75.1389C58.7934 75.1389 56.8279 46.8995 77.2424 27.4151C97.657 7.94024 134.796 19.8713 134.796 19.8713C167.763 29.8572 166.039 75.3871 166.039 75.3871Z" fill="#331510"/>
<path d="M149.248 73.3011C150.476 77.7586 151.901 82.1634 153.518 86.4983C154.209 83.5984 155.87 81.2132 158.059 79.1691C159.673 77.6617 161.681 76.4118 162.569 74.3988C163.584 72.0989 162.74 69.2102 160.792 67.6039C158.844 65.9976 155.995 65.6563 153.611 66.5116C151.228 67.3669 150.296 71.0157 149.248 73.3011Z" fill="#331510"/>
<path d="M59.3523 73.9186C60.1012 79.819 61.5694 85.6297 63.7154 91.1837C64.0078 84.0034 64.7038 77.0838 65.8702 69.9912C64.5866 69.9084 62.8701 69.8203 61.6363 70.1808C60.4026 70.5409 59.1918 72.6553 59.3523 73.9186Z" fill="#331510"/>
</svg>
