<svg width="209" height="217" viewBox="0 0 209 217" fill="none" xmlns="http://www.w3.org/2000/svg">
<path d="M65.1266 17.6375C65.1266 17.6375 68.8966 9.34146 77.1313 5.98367C79.4864 5.02309 82.0292 4.62103 84.6215 4.62103C87.9507 4.62103 91.2509 5.39866 94.1654 6.86938C94.7803 7.17933 95.3968 7.52672 96.0155 7.87789C96.6615 8.24463 97.588 8.77075 98.117 8.96253C98.2365 8.88767 98.4068 8.7758 98.6495 8.60673C99.3657 8.10626 100.069 7.57719 100.774 7.04812C103.756 4.81239 107.136 2.27806 111.59 1.3074C112.779 1.04833 114.009 0.917114 115.244 0.917114C120.799 0.917114 126.486 3.5957 130.459 8.08313C130.933 8.61935 131.393 9.18669 131.853 9.75782C132.464 10.5165 133.487 11.7866 133.924 11.9734C134.11 12.0179 134.754 12.0285 135.225 12.0364C135.954 12.0482 136.781 12.0621 137.707 12.1786C141.867 12.703 145.235 15.1739 146.631 18.5565C151.666 20.7363 156.549 23.3324 161.161 26.2835C164.601 28.4835 167.908 30.8832 171.066 33.4722C174.226 36.0629 177.235 38.8382 180.073 41.7784C182.911 44.7182 185.577 47.8228 188.052 51.0729C192.92 57.4642 197.065 64.4221 200.29 71.7824C203.925 80.0743 206.435 88.8544 207.784 97.8053C208.62 103.354 209.01 108.97 208.944 114.581C208.88 119.982 208.388 125.377 207.466 130.699C206.424 136.712 204.846 142.632 202.738 148.359C201.173 152.61 199.321 156.754 197.206 160.76C189.184 175.954 177.369 188.824 163.165 198.456C156.033 203.292 148.308 207.252 140.185 210.137C128.469 214.298 116.024 216.307 103.598 216.221C95.0116 216.162 86.4367 215.09 78.1621 212.82C62.1347 208.418 47.0171 200.611 34.7467 189.326C23.4595 178.945 14.2277 166.285 8.37427 152.072C8.27965 151.857 8.19133 151.634 8.10637 151.41C6.1049 146.471 4.46932 141.28 3.2787 136.066C3.20973 135.804 3.15169 135.541 3.10333 135.28C1.60149 128.533 0.589186 121.632 0.664047 114.707C0.898723 92.989 6.9822 71.08 19.8507 53.4024C24.8415 46.5459 30.6159 40.2576 37.0631 34.7461C40.3692 31.9199 43.8506 29.2985 47.4843 26.9072C47.4839 26.906 59.282 19.4207 65.1266 17.6375Z" fill="white"/>
<path d="M34.4025 181.231C34.4025 181.231 33.2362 180.037 32.8758 179.657C32.3144 179.065 31.7617 178.465 31.2154 177.859C28.597 174.957 26.1531 171.899 23.9081 168.699C23.8404 168.593 23.7626 168.496 23.6949 168.389C23.5107 168.127 23.3265 167.865 23.1519 167.603C18.6939 160.917 14.8908 153.728 12.1348 146.171C9.23584 138.228 7.52666 130.097 6.71328 121.696C6.7095 121.657 6.70571 121.619 6.70193 121.58C6.64389 120.979 6.59511 120.377 6.55641 119.776C6.01725 111.431 6.4601 103.034 8.05994 94.8203C8.08895 94.6265 8.12765 94.4322 8.17643 94.2383C8.83588 91.6039 9.34392 88.9497 10.0988 86.3354C10.8638 83.6854 11.766 81.0872 12.7349 78.5062C12.7934 78.351 12.8514 78.1861 12.9095 78.0309C14.7137 73.4236 16.8666 68.972 19.3302 64.7335C19.4177 64.588 19.4951 64.4521 19.5826 64.3066C21.9882 60.1657 24.7307 56.2078 27.7395 52.4833C27.8463 52.3474 27.9527 52.2213 28.0498 52.0951C31.178 48.302 34.5425 44.7205 38.1758 41.4064C38.302 41.2899 38.4281 41.1739 38.5635 41.067C42.4142 37.5948 46.5463 34.4229 50.9206 31.6005C51.0758 31.4937 51.2213 31.397 51.3765 31.2998C56.0225 28.3319 60.9397 25.7324 66.0803 23.5597C66.2452 23.492 66.4197 23.4142 66.5942 23.3465C71.9287 21.1255 77.4961 19.36 83.2671 18.0991C83.461 18.0507 83.6553 18.0116 83.8492 17.9826C86.6136 17.3812 89.4166 16.906 92.2584 16.5569C92.4329 16.5279 92.6075 16.5085 92.782 16.4892C93.616 16.3824 94.4697 16.2953 95.3134 16.2175C95.5754 16.1982 95.837 16.1691 96.099 16.1595C97.6509 16.0236 99.2124 15.9168 100.784 15.8588C100.968 15.8491 101.162 15.8394 101.346 15.8394C102.442 15.8007 103.548 15.7814 104.654 15.7814C105.701 15.7814 106.749 15.8007 107.787 15.8297C107.971 15.8394 108.165 15.8394 108.349 15.8491C114.149 16.0623 119.824 16.7705 125.323 17.9342C125.517 17.9729 125.701 18.0116 125.895 18.0604C129.765 18.9041 133.557 19.9807 137.243 21.2613C137.399 21.3097 137.544 21.3585 137.69 21.4165C145.267 24.0753 152.515 27.6905 159.211 32.1212C160.881 33.2268 162.518 34.3834 164.118 35.5887C170.425 40.3416 176.174 45.9031 181.183 52.008C186.322 58.2715 190.665 65.2037 194.074 72.5531C195.659 75.9731 197.045 79.4878 198.22 83.0697C200.842 91.058 202.396 99.4537 202.852 107.846C202.947 109.606 202.995 111.369 202.995 113.132C202.995 121.25 201.973 129.387 199.95 137.25C198.088 144.493 195.354 151.473 191.889 158.098C190.357 161.027 188.669 163.859 186.845 166.594C184.305 170.404 181.501 174.037 178.455 177.457L115.678 184.246L81.8423 197.396C81.8427 197.397 34.4025 181.231 34.4025 181.231Z" fill="#F1BD06"/>
<g opacity="0.44">
<path d="M116.338 16.4897C116.445 16.8195 116.541 17.1492 116.648 17.4789C119.209 25.5971 121.847 33.9869 133.079 42.8424C144.32 51.7075 153.088 52.3186 161.575 52.9103C169.451 53.4633 177.569 54.0353 187.695 61.3001C187.482 60.9313 187.249 60.5726 187.007 60.2138C186.997 60.2138 186.997 60.2138 186.997 60.2042C177.22 53.5214 169.296 52.9688 161.605 52.4351C153.195 51.8433 144.495 51.2322 133.38 42.4643C122.265 33.6963 119.646 25.3742 117.114 17.3338C117.037 17.0718 116.949 16.8102 116.862 16.5579C116.687 16.5284 116.512 16.5091 116.338 16.4897Z" fill="#FADED3"/>
<path d="M100.77 15.8498C103.214 20.0979 104.513 24.2493 105.803 28.3326C108.354 36.4411 110.992 44.831 122.234 53.6961C133.466 62.5611 142.234 63.1722 150.721 63.764C159.13 64.3557 167.83 64.9571 178.945 73.7251C190.07 82.5027 192.679 90.8151 195.211 98.8555C196.889 104.19 198.596 109.641 202.766 115.267C202.776 114.995 202.786 114.723 202.786 114.443C198.935 109.059 197.286 103.832 195.676 98.7104C193.125 90.6019 190.487 82.2121 179.245 73.347C168.014 64.4915 159.236 63.8708 150.759 63.2791C142.34 62.697 133.649 62.0859 122.525 53.318C111.409 44.55 108.791 36.2279 106.259 28.1875C104.998 24.1429 103.698 20.0306 101.331 15.8304C101.148 15.8401 100.954 15.8401 100.77 15.8498Z" fill="#FADED3"/>
<path d="M83.2246 18.0609C90.5959 25.3645 92.8076 32.3673 94.9508 39.1859C97.502 47.2944 100.14 55.6843 111.381 64.5494C122.613 73.4145 131.391 74.0256 139.868 74.6173C148.287 75.209 156.977 75.8105 168.093 84.5784C179.218 93.3463 181.827 101.668 184.358 109.709C186.89 117.721 189.489 126.004 200.362 134.723C200.411 134.549 200.45 134.374 200.479 134.2C189.877 125.616 187.307 117.459 184.824 109.564C182.273 101.455 179.635 93.0654 168.393 84.2003C157.162 75.3352 148.393 74.7241 139.907 74.1324C131.498 73.5503 122.797 72.9392 111.682 64.1713C100.557 55.4029 97.9385 47.0812 95.4164 39.0408C93.2728 32.2319 91.0711 25.2387 83.7966 17.9352C83.6027 17.9739 83.4185 18.0126 83.2246 18.0609Z" fill="#FADED3"/>
<path d="M66.0078 23.5119C66.6092 23.9485 67.2203 24.414 67.8314 24.899C78.9465 33.6766 81.5654 41.9891 84.0972 50.0395C86.6479 58.148 89.2958 66.5379 100.527 75.403C111.759 84.2584 120.537 84.8792 129.024 85.4709C137.433 86.053 146.123 86.664 157.248 95.432C168.363 104.2 170.982 112.522 173.514 120.563C176.065 128.671 178.703 137.061 189.935 145.926C191.884 147.459 193.756 148.749 195.57 149.825C195.638 149.68 195.696 149.525 195.754 149.369C193.98 148.312 192.146 147.051 190.236 145.548C179.121 136.78 176.502 128.458 173.97 120.417C171.419 112.299 168.781 103.909 157.549 95.0539C146.308 86.1888 137.54 85.5777 129.053 84.986C120.644 84.3942 111.944 83.7928 100.829 75.0249C89.7134 66.2473 87.0945 57.9348 84.5627 49.8843C82.0116 41.7758 79.3637 33.386 68.1321 24.5209C67.5891 24.094 67.0554 23.6869 66.5222 23.2987C66.3472 23.3664 66.1823 23.4345 66.0078 23.5119Z" fill="#FADED3"/>
<path d="M50.7988 31.5335C52.7776 32.6778 54.8337 34.0648 56.9774 35.7526C68.1022 44.5205 70.7113 52.8427 73.2431 60.8835C75.8035 69.0016 78.4422 77.3915 89.6738 86.2566C100.915 95.112 109.683 95.7231 118.17 96.3148C126.579 96.9066 135.279 97.5177 146.395 106.286C157.51 115.054 160.129 123.366 162.661 131.416C165.212 139.525 167.85 147.914 179.091 156.78C182.603 159.554 185.871 161.513 188.975 162.919C189.062 162.784 189.149 162.638 189.227 162.502C186.143 161.105 182.884 159.156 179.392 156.392C168.267 147.624 165.649 139.311 163.126 131.271C160.566 123.152 157.928 114.763 146.696 105.907C135.464 97.042 126.686 96.4309 118.199 95.8392C109.79 95.2474 101.09 94.6364 89.9749 85.8684C78.8594 77.1005 76.2409 68.788 73.7091 60.7379C71.1584 52.6294 68.5202 44.2396 57.2785 35.3745C55.1933 33.7259 53.1952 32.3679 51.2648 31.2424C51.1092 31.3396 50.954 31.4363 50.7988 31.5335Z" fill="#FADED3"/>
<path d="M38.0547 41.3491C40.6058 42.6583 43.2924 44.3654 46.1245 46.6062C57.2497 55.3741 59.8682 63.6963 62.4 71.7367C64.9511 79.8548 67.5889 88.2447 78.8209 97.1001C90.0622 105.965 98.8302 106.576 107.317 107.168C115.726 107.76 124.427 108.361 135.542 117.139C146.657 125.907 149.276 134.219 151.808 142.26C154.358 150.378 156.996 158.768 168.238 167.623C172.69 171.134 176.754 173.346 180.566 174.781C180.682 174.645 180.798 174.519 180.896 174.383C177.074 172.967 173 170.766 168.538 167.245C157.423 158.477 154.804 150.164 152.273 142.114C149.722 134.006 147.084 125.616 135.842 116.751C124.611 107.895 115.833 107.274 107.356 106.683C98.937 106.101 90.2464 105.49 79.1212 96.7216C68.0061 87.9537 65.3872 79.6315 62.8554 71.5911C60.3043 63.473 57.6665 55.0928 46.4248 46.2277C43.6217 44.0163 40.9642 42.3189 38.4328 40.9996C38.307 41.1161 38.1809 41.223 38.0547 41.3491Z" fill="#FADED3"/>
<path d="M27.6094 52.4158C30.044 53.696 32.5948 55.3353 35.2813 57.4596C46.3965 66.2276 49.0153 74.5497 51.5471 82.5901C54.0978 90.6986 56.7361 99.0885 67.9778 107.954C79.2094 116.819 87.9874 117.43 96.4643 118.021C104.883 118.613 113.574 119.215 124.689 127.983C135.814 136.751 138.423 145.073 140.954 153.113C143.515 161.231 146.153 169.621 157.385 178.477C161.924 182.065 166.075 184.296 169.955 185.722C170.091 185.605 170.227 185.489 170.363 185.363C166.454 183.947 162.274 181.717 157.686 178.099C146.57 169.331 143.952 161.009 141.42 152.968C138.87 144.859 136.231 136.47 124.99 127.604C113.758 118.739 104.99 118.128 96.503 117.537C88.0938 116.954 79.3936 116.343 68.2785 107.575C57.1533 98.8075 54.5348 90.4854 52.003 82.445C49.4523 74.3268 46.8141 65.937 35.5825 57.0719C32.8959 54.9573 30.3447 53.3086 27.9105 52.0284C27.8033 52.1538 27.6969 52.2896 27.6094 52.4158Z" fill="#FADED3"/>
<path d="M19.1797 64.6368C20.8674 65.6651 22.6132 66.8772 24.4271 68.3029C35.5422 77.0805 38.1611 85.393 40.6929 93.4435C43.2436 101.552 45.8818 109.942 57.1235 118.807C68.3551 127.672 77.1328 128.283 85.6198 128.875C94.029 129.457 102.72 130.068 113.844 138.836C124.959 147.604 127.578 155.926 130.11 163.967C132.661 172.075 135.299 180.465 146.531 189.33C150.158 192.191 153.524 194.189 156.705 195.606C156.88 195.509 157.044 195.402 157.209 195.295C153.97 193.889 150.526 191.871 146.831 188.952C135.716 180.184 133.097 171.862 130.565 163.821C128.014 155.703 125.376 147.313 114.145 138.457C102.903 129.592 94.135 128.981 85.6484 128.389C77.2392 127.798 68.5389 127.196 57.4238 118.428C46.3087 109.651 43.6898 101.338 41.1584 93.2979C38.6077 85.1798 35.9598 76.7899 24.7278 67.9248C22.8945 66.4797 21.1294 65.2576 19.4224 64.21C19.3349 64.3555 19.2571 64.4913 19.1797 64.6368Z" fill="#FADED3"/>
<path d="M12.5742 78.3901C12.9039 78.6328 13.2433 78.8944 13.5735 79.1564C24.6886 87.9243 27.3075 96.2465 29.8393 104.287C32.3997 112.405 35.0379 120.795 46.2699 129.66C57.5015 138.515 66.2792 139.126 74.7662 139.728C83.1754 140.31 91.8756 140.921 102.991 149.689C114.106 158.457 116.725 166.769 119.257 174.819C121.807 182.928 124.445 191.318 135.687 200.183C137.394 201.522 139.034 202.676 140.634 203.665C140.828 203.597 141.012 203.519 141.197 203.452C139.519 202.433 137.782 201.22 135.979 199.804C124.864 191.027 122.245 182.714 119.723 174.674C117.162 166.556 114.524 158.166 103.292 149.31C92.0602 140.445 83.2822 139.834 74.7956 139.243C66.3864 138.651 57.6862 138.04 46.571 129.272C35.4559 120.504 32.8371 112.191 30.3053 104.141C27.7541 96.0328 25.1163 87.643 13.8746 78.7779C13.4965 78.4869 13.1277 78.1958 12.7593 77.9246C12.6907 78.0797 12.6327 78.2349 12.5742 78.3901Z" fill="#FADED3"/>
<path d="M7.90039 94.6558C14.7771 101.736 16.911 108.535 18.9865 115.141C21.5469 123.259 24.1855 131.649 35.4171 140.504C46.6584 149.369 55.4268 149.98 63.9134 150.572C72.3226 151.164 81.0228 151.765 92.1384 160.543C103.254 169.311 105.872 177.623 108.404 185.664C110.751 193.122 113.167 200.823 122.274 208.883C122.478 208.845 122.682 208.815 122.885 208.777C113.642 200.697 111.217 192.996 108.87 185.518C106.319 177.41 103.671 169.02 92.4391 160.155C81.2075 151.299 72.4294 150.688 63.9525 150.087C55.5336 149.505 46.8431 148.894 35.7183 140.126C24.6027 131.358 21.9843 123.036 19.4525 114.995C17.3282 108.254 15.156 101.319 8.01731 94.0834C7.96852 94.2777 7.92941 94.4619 7.90039 94.6558Z" fill="#FADED3"/>
<path d="M104.033 210.474C103.965 210.484 103.897 210.474 103.829 210.474C103.693 210.484 103.567 210.474 103.431 210.474C100.454 205.712 98.9889 201.076 97.5535 196.517C97.0783 195.013 96.603 193.501 96.0693 191.978C93.7512 185.353 90.3274 178.525 81.2877 171.386C80.1139 170.465 78.9696 169.631 77.8542 168.884C76.6127 168.04 75.4002 167.313 74.2071 166.663C74.1394 166.624 74.0616 166.585 73.9939 166.547C69.1733 163.947 64.7894 162.774 60.6089 162.153H60.5993C60.3373 162.114 60.0853 162.076 59.8233 162.046C57.5245 161.736 55.2842 161.581 53.0632 161.425C44.5858 160.834 35.8082 160.223 24.5766 151.357C13.3353 142.492 10.6971 134.103 8.14593 125.994C7.69004 124.53 7.22447 123.065 6.70087 121.591C6.70087 121.581 6.70087 121.581 6.70087 121.581C6.61339 121.348 6.53601 121.106 6.44853 120.873C6.40016 120.31 6.36105 119.748 6.33203 119.185C6.40984 119.379 6.48722 119.583 6.55493 119.777C7.34055 121.814 7.9613 123.841 8.6014 125.848C11.1328 133.889 13.7516 142.211 24.8764 150.979C35.992 159.747 44.6918 160.358 53.1014 160.94C55.3906 161.095 57.7083 161.26 60.0946 161.59C60.5215 161.648 60.9483 161.706 61.3748 161.784C65.3319 162.424 69.4736 163.588 74.0031 166.003C74.0906 166.042 74.168 166.081 74.2555 166.139C75.2156 166.653 76.1854 167.225 77.1847 167.865C78.6104 168.777 80.0752 169.815 81.588 171.008C90.5015 178.03 94.0031 184.761 96.3503 191.288C96.9614 192.996 97.4946 194.693 98.0187 196.371C99.4646 200.969 100.949 205.663 104.033 210.474Z" fill="#FADED3"/>
<path d="M87.757 209.087C87.5728 209.058 87.3983 209.029 87.2136 208.99C87.204 208.971 87.204 208.961 87.1943 208.942C87.0391 208.418 86.8646 207.894 86.7094 207.371C84.8568 201.474 82.9462 195.431 77.6794 189.165C77.5146 188.962 77.34 188.758 77.1558 188.554C75.3419 186.469 73.1403 184.374 70.444 182.24C64.8959 177.875 59.969 175.528 55.3617 174.209C55.1968 174.16 55.032 174.112 54.8671 174.073C50.7935 172.948 46.9912 172.618 43.2473 172.346H43.2376C42.8982 172.327 42.5588 172.298 42.219 172.279C36.4093 171.881 30.4735 171.454 23.6935 168.389C23.5964 168.351 23.5093 168.312 23.4122 168.263C23.228 168.001 23.0534 167.74 22.8789 167.478C22.9664 167.526 23.0631 167.565 23.1506 167.604C30.1631 170.95 36.2832 171.377 42.2485 171.794C42.7721 171.832 43.2864 171.871 43.81 171.91H43.8197C47.4181 172.172 51.0845 172.521 55.003 173.598C55.1678 173.637 55.3327 173.686 55.5072 173.734C60.1532 175.072 65.1483 177.439 70.7447 181.862C73.2084 183.801 75.2549 185.722 76.9813 187.623C77.1752 187.827 77.3594 188.04 77.5343 188.244C83.257 194.791 85.2353 201.086 87.1657 207.225C87.3499 207.827 87.5438 208.438 87.7381 209.039C87.7473 209.058 87.7473 209.068 87.757 209.087Z" fill="#FADED3"/>
</g>
<path d="M80.7363 153.423L80.8818 129.602L88.1366 129.059L91.0658 128.845H91.1045L122.695 126.479H122.705L123.442 126.421L123.966 126.382L124.043 126.876L124.15 127.565L125.343 135.324L126.585 143.404L127.913 152.036L122.262 172.61L93.4568 176.005L80.7363 153.423Z" fill="#AD6969"/>
<path d="M125.344 135.328C123.074 138.14 120.388 140.556 117.168 142.244C113.89 143.97 110.213 144.853 106.528 145.279C99.8835 146.055 92.9488 145.337 86.9158 142.428C84.7432 141.37 82.6967 140.012 80.8828 138.402V129.605L123.967 126.385L125.344 135.328Z" fill="#331510"/>
<path d="M79.5339 207.264C81.7385 207.834 83.9633 208.326 86.2019 208.743C101.204 211.539 116.704 210.831 131.425 206.827L148.251 173.511L127.933 152.133C127.933 152.133 127.875 152.065 127.856 152.085C127.419 152.443 126.973 152.802 126.537 153.161C126.411 153.258 126.284 153.365 126.159 153.472C122.424 156.517 118.69 159.563 114.946 162.599C114.82 162.705 114.694 162.812 114.559 162.919C111.232 165.625 107.905 168.341 104.578 171.047C103.201 170.028 101.833 169.019 100.456 168.001C99.893 167.584 99.3307 167.167 98.768 166.75C93.1135 162.579 87.4586 158.398 81.8138 154.218C81.8138 154.209 81.8041 154.209 81.8041 154.209C81.4453 153.947 81.0963 153.685 80.7371 153.423C80.6694 153.452 80.5722 153.491 80.4461 153.54L57.1484 176.41L79.5339 207.264Z" fill="#FADED3"/>
<path d="M94.9138 195.056C94.8326 195.056 94.756 195.015 94.7115 194.946L73.745 163.083C73.6714 162.971 73.7025 162.821 73.8136 162.748C73.9267 162.674 74.076 162.705 74.1492 162.816L94.862 194.294L104.353 170.959C104.387 170.872 104.471 170.813 104.564 170.808C104.665 170.815 104.747 170.853 104.791 170.935L116.722 193.175L136.477 161.829C136.549 161.716 136.697 161.683 136.811 161.754C136.924 161.826 136.959 161.976 136.887 162.089L116.911 193.787C116.865 193.86 116.788 193.914 116.697 193.9C116.61 193.897 116.532 193.848 116.491 193.772L104.607 171.619L95.1379 194.904C95.1039 194.988 95.0265 195.045 94.9365 195.054C94.9289 195.055 94.9213 195.056 94.9138 195.056Z" fill="#331510"/>
<path d="M105.025 182.348C105.914 182.348 106.635 181.627 106.635 180.739C106.635 179.85 105.914 179.129 105.025 179.129C104.137 179.129 103.416 179.85 103.416 180.739C103.416 181.627 104.137 182.348 105.025 182.348Z" fill="#331510"/>
<path d="M105.025 187.466C105.914 187.466 106.635 186.746 106.635 185.857C106.635 184.968 105.914 184.247 105.025 184.247C104.137 184.247 103.416 184.968 103.416 185.857C103.416 186.746 104.137 187.466 105.025 187.466Z" fill="#331510"/>
<path d="M106.635 191.305C106.635 192.194 105.914 192.914 105.025 192.914C104.137 192.914 103.416 192.194 103.416 191.305C103.416 190.416 104.137 189.696 105.025 189.696C105.914 189.696 106.635 190.416 106.635 191.305Z" fill="#331510"/>
<path d="M78.8616 196.784C79.2477 200.284 79.4945 203.785 79.5332 207.264C68.8765 204.504 58.7005 199.899 49.5608 193.767C46.8204 191.928 44.1725 189.951 41.6306 187.847C41.0225 187.343 34.4023 181.231 34.4023 181.231C37.2487 177.793 40.3054 174.567 43.8823 171.88C47.4584 169.194 51.3528 166.966 55.3007 164.879C62.8099 160.909 70.5672 157.608 78.3981 154.345C78.5243 154.287 78.6601 154.238 78.7766 154.19C79.2132 154.015 79.5816 153.87 79.892 153.753C79.6009 154.345 79.1741 154.937 78.7283 155.616C77.4186 157.594 76.1771 159.699 75.3238 161.94C73.6663 166.083 74.2589 170.023 75.0891 174.247C76.5308 181.6 78.0238 189.191 78.8616 196.784Z" fill="#51B5BB"/>
<path d="M80.7363 153.229V153.423C80.7363 153.423 80.6686 153.52 80.5424 153.685C79.7955 154.713 77.0214 158.583 75.3244 161.939C74.9947 162.579 74.7134 163.19 74.4804 163.762C74.3252 164.18 74.199 164.567 74.1119 164.927C74.0535 165.189 74.0148 165.547 74.0051 166.003C73.9954 166.168 73.9954 166.352 73.9954 166.547C74.0535 170.727 75.6638 180.349 76.9827 187.623C77.0509 187.943 77.0992 188.253 77.1573 188.554C77.9622 192.89 78.6217 196.216 78.7285 196.731C78.7382 196.779 78.7382 196.798 78.7382 196.798C78.7382 196.798 78.4665 196.934 77.9719 197.167C76.0322 198.088 70.707 200.581 65.6636 202.521C62.9762 201.373 60.351 200.082 57.7789 198.697C57.0349 198.296 56.2951 197.889 55.5574 197.477C54.493 196.882 53.4466 196.254 52.415 195.605C52.3666 195.576 52.3178 195.556 52.2791 195.518C51.8914 189.756 52.5605 182.026 54.869 174.073C54.9077 173.917 54.9565 173.753 55.0048 173.597C55.7131 171.202 56.5761 168.796 57.6043 166.42C58.1477 165.169 58.7197 163.995 59.3308 162.909C59.3598 162.85 59.3888 162.792 59.4182 162.744C59.5541 162.501 59.6899 162.269 59.8258 162.046C59.9132 161.891 60.0003 161.745 60.0974 161.59C63.2206 156.478 66.9838 153.229 70.437 151.163C70.6696 151.018 70.8929 150.891 71.1352 150.766C76.3729 147.827 80.7729 147.594 80.7729 147.594L80.7363 153.229Z" fill="#51B5BB"/>
<path d="M60.9589 200.591C60.8836 200.591 60.8087 200.555 60.7616 200.488C60.6842 200.379 60.7095 200.228 60.8188 200.15C61.7487 199.487 62.5965 198.549 63.3435 197.721C63.5836 197.456 63.8128 197.202 64.0323 196.97C68.4373 192.336 73.6107 194.362 78.0931 196.957L78.274 197.064C78.4741 197.181 78.6689 197.296 78.8644 197.415C78.9788 197.486 79.0146 197.635 78.9448 197.749C78.8741 197.864 78.7252 197.899 78.6108 197.83C78.4182 197.71 78.2256 197.597 78.0283 197.482L77.8483 197.376C73.5325 194.877 68.5572 192.914 64.3848 197.305C64.1669 197.533 63.9407 197.784 63.7035 198.047C62.9389 198.892 62.0729 199.851 61.0993 200.545C61.0568 200.575 61.0085 200.591 60.9589 200.591Z" fill="#FADED3"/>
<path d="M53.6065 196.585C53.5098 196.585 53.4177 196.526 53.3811 196.43C50.8842 190.041 52.6506 182.677 54.6731 175.682C54.8182 175.169 54.9742 174.654 55.1298 174.138L55.2757 173.661C56.3692 170.044 57.6582 166.396 59.1042 162.818L59.1517 162.699C59.1546 162.684 59.1592 162.669 59.1651 162.657C59.1992 162.578 59.2307 162.501 59.2627 162.423C59.2938 162.346 59.3258 162.268 59.3586 162.192C59.4137 162.067 59.5588 162.014 59.6778 162.066C59.8006 162.12 59.857 162.263 59.8035 162.385C59.7707 162.459 59.7417 162.533 59.7114 162.606C59.6816 162.678 59.6526 162.75 59.6206 162.823C59.6185 162.835 59.6147 162.844 59.6118 162.854L59.5537 162.999C58.1129 166.563 56.8297 170.199 55.7392 173.805L55.5933 174.281C55.4385 174.792 55.2846 175.304 55.1395 175.817C53.1393 182.733 51.3906 190.006 53.8319 196.254C53.8811 196.379 53.8193 196.519 53.6944 196.568C53.6654 196.579 53.6355 196.585 53.6065 196.585Z" fill="#FADED3"/>
<path d="M178.455 177.458C175.603 174.335 172.577 171.464 169.502 168.971C164.691 165.072 156.651 161.26 148.746 158.088C146.535 157.205 144.362 156.381 142.267 155.615C142.073 155.547 141.879 155.469 141.685 155.401C136.069 153.364 131.103 151.783 128.193 150.881C128.418 150.951 128.342 152.265 128.416 152.503C128.662 153.297 129.307 154.062 129.755 154.756C130.802 156.381 131.907 157.985 132.626 159.791C134.58 164.698 133.326 170.694 132.878 175.812C131.977 186.134 130.64 196.449 131.423 206.827C131.423 206.827 159.493 200.784 178.455 177.458Z" fill="#51B5BB"/>
<path d="M126.584 143.404C129.174 143.704 134.246 144.985 139.503 148.632C139.727 148.787 139.959 148.952 140.182 149.117C143.131 151.27 146.108 154.18 148.727 158.089L148.756 158.118C148.766 158.137 148.776 158.156 148.785 158.185C149.241 158.845 149.668 159.534 150.094 160.261V160.271C150.376 160.756 150.657 161.25 150.928 161.765C153.673 166.954 155.632 172.356 156.913 177.468V177.477C156.99 177.739 157.049 178.001 157.117 178.253V178.263C158.591 184.422 159.105 190.086 158.882 194.354C157.98 194.936 157.068 195.518 156.146 196.071C154.876 196.847 153.596 197.594 152.286 198.312C150.705 199.185 149.095 200.009 147.456 200.785C141.539 199.156 134.585 196.566 132.199 195.645C131.656 195.441 131.346 195.325 131.346 195.325C131.346 195.325 131.346 195.325 131.346 195.315C131.346 195.296 131.355 195.267 131.355 195.208C131.51 193.928 132.839 182.512 133.48 173.249V173.239C133.509 172.89 133.528 172.551 133.547 172.211V172.201C133.693 170.126 133.78 168.176 133.809 166.518V166.508C133.867 164.161 133.79 162.385 133.518 161.59C133.217 160.707 132.684 159.67 132.014 158.584C132.014 158.574 132.005 158.564 131.995 158.555C131.054 157.012 129.861 155.364 128.765 153.947L127.931 152.464L127.854 152.085L126.584 143.404Z" fill="#51B5BB"/>
<path d="M152.287 198.566C152.278 198.566 152.268 198.566 152.259 198.565C150.333 198.354 148.607 196.725 147.22 195.417C146.936 195.149 146.663 194.892 146.404 194.66C141.678 190.43 136.644 192.889 132.343 195.854C132.172 195.978 131.984 196.106 131.807 196.224C131.73 196.285 131.647 196.348 131.553 196.41C131.437 196.487 131.28 196.456 131.2 196.337C131.123 196.22 131.156 196.061 131.273 195.984C131.355 195.93 131.428 195.875 131.509 195.811C131.696 195.686 131.878 195.562 132.049 195.437C136.519 192.356 141.754 189.814 146.743 194.281C147.006 194.515 147.281 194.775 147.569 195.046C148.9 196.302 150.558 197.866 152.315 198.058C152.454 198.073 152.555 198.199 152.54 198.34C152.526 198.469 152.416 198.566 152.287 198.566Z" fill="#FADED3"/>
<path d="M156.147 196.325C156.098 196.325 156.048 196.31 156.003 196.28C155.887 196.201 155.858 196.042 155.937 195.926C156.06 195.746 156.169 195.564 156.259 195.384C156.316 195.292 156.359 195.213 156.394 195.142L156.475 194.961C158.608 190.534 158.643 185.18 156.59 178.101L156.515 177.849C156.457 177.657 156.401 177.467 156.334 177.281C156.328 177.265 156.325 177.25 156.323 177.233C155.671 175.101 154.929 173.093 154.29 171.408C152.864 167.61 151.256 163.847 149.507 160.226C149.198 159.577 148.888 158.94 148.559 158.301C148.552 158.288 148.543 158.266 148.534 158.24C148.524 158.228 148.515 158.215 148.508 158.201L148.277 157.727C148.214 157.601 148.265 157.448 148.39 157.386C148.515 157.322 148.668 157.372 148.732 157.499L148.944 157.932C148.96 157.953 148.975 157.976 148.985 158C148.987 158.006 148.99 158.013 148.991 158.019C149.003 158.043 149.014 158.069 149.027 158.105C149.342 158.712 149.654 159.353 149.966 160.006C151.72 163.64 153.335 167.416 154.766 171.229C155.411 172.927 156.16 174.954 156.818 177.111C156.821 177.121 156.823 177.131 156.825 177.141C156.89 177.324 156.946 177.513 157.003 177.704L157.078 177.954C159.169 185.166 159.124 190.635 156.939 195.172L156.857 195.356C156.808 195.454 156.755 195.549 156.701 195.634C156.614 195.812 156.494 196.014 156.357 196.214C156.308 196.286 156.229 196.325 156.147 196.325Z" fill="#FADED3"/>
<path d="M47.8549 80.7673C44.4471 80.118 40.7469 80.9827 38.0852 83.2167C34.446 86.2709 33.1196 91.6268 34.3724 96.2244C35.6253 100.822 39.1892 104.592 43.465 106.653C47.7409 108.713 52.6586 109.176 57.3631 108.586C58.3064 108.468 59.3094 108.278 59.987 107.608C60.5101 107.091 60.7612 106.359 60.9299 105.64C61.5355 103.062 61.2899 100.354 60.7953 97.751C59.3498 90.1392 56.3163 82.3802 47.8549 80.7673Z" fill="#AD6969"/>
<path d="M149.694 76.1286C153.055 75.2698 156.801 75.9044 159.596 77.9698C163.417 80.7935 165.072 86.0569 164.106 90.7231C163.139 95.3892 159.815 99.3724 155.674 101.693C151.534 104.014 146.654 104.78 141.922 104.482C140.974 104.422 139.961 104.294 139.243 103.667C138.689 103.183 138.393 102.468 138.18 101.762C137.416 99.2252 137.495 96.5079 137.827 93.879C138.8 86.1927 141.348 78.2609 149.694 76.1286Z" fill="#AD6969"/>
<path d="M142.391 98.2565C142.346 98.2578 142.301 98.2515 142.256 98.2351C142.068 98.1674 141.969 97.9592 142.037 97.7699C145.221 88.9031 152.381 81.6782 161.19 78.4424C161.376 78.3734 161.587 78.4702 161.657 78.6586C161.726 78.847 161.629 79.056 161.44 79.1254C152.832 82.2872 145.834 89.3494 142.722 98.016C142.67 98.1606 142.536 98.2523 142.391 98.2565Z" fill="#331510"/>
<path d="M57.2972 103.998C57.1609 104.002 57.0272 103.929 56.9612 103.8C52.6071 95.2631 45.007 88.3818 36.1091 84.9201C35.9215 84.8474 35.829 84.6362 35.9018 84.4495C35.9741 84.2611 36.1848 84.1698 36.3724 84.2422C45.4347 87.7678 53.1752 94.7761 57.6093 103.469C57.7005 103.648 57.629 103.867 57.4507 103.959C57.4015 103.984 57.3489 103.996 57.2972 103.998Z" fill="#331510"/>
<path d="M145.467 76.5352C145.467 76.5937 145.458 76.6618 145.448 76.73C144.432 85.1518 142.904 93.8163 141.501 102.199C141.463 102.404 141.434 102.598 141.395 102.802C141.337 103.143 141.269 103.483 141.202 103.824C137.555 123.332 128.492 132.765 104.203 133.737C96.281 134.058 88.2142 133.543 80.6015 131.18C75.0686 129.468 69.4002 126.969 65.4439 122.573C61.1878 117.866 59.7465 111.292 58.2279 105.243C58.1408 104.883 58.0441 104.524 57.957 104.164C56.0708 96.812 54.3587 87.9233 53.3817 78.5195C53.372 78.4126 53.3623 78.3054 53.3527 78.1986C52.3467 68.3864 52.1339 58.0392 53.3333 48.3241C54.3296 40.2135 57.7249 34.1843 62.2325 29.7107C62.2712 29.6716 62.3099 29.6329 62.3486 29.5942C75.6582 16.5142 98.5248 16.7868 98.5248 16.7868C110.635 16.534 121.072 19.0915 129.042 23.7303C129.139 23.7888 129.236 23.8472 129.332 23.9053C137.129 28.505 142.516 35.1373 144.702 43.102C147.325 52.6316 146.947 64.3111 145.467 76.5352Z" fill="#AD6969"/>
<path d="M81.9801 79.3797C82.0247 81.8476 80.0703 83.8844 77.6159 83.929C75.161 83.9736 73.1352 82.0091 73.0906 79.5412C73.046 77.0733 75.0004 75.0365 77.4548 74.992C79.9096 74.9474 81.9359 76.9114 81.9801 79.3797Z" fill="#331510"/>
<path d="M125.933 78.5808C125.977 81.0486 124.023 83.0854 121.569 83.13C119.114 83.1746 117.088 81.2101 117.044 78.7423C117 76.2744 118.953 74.2376 121.408 74.193C123.862 74.1484 125.888 76.1129 125.933 78.5808Z" fill="#331510"/>
<path d="M113.927 62.2068C112.933 63.4706 112.437 65.0314 113.172 66.6375C113.755 67.9122 115.116 68.6508 116.466 69.0028C119.203 69.7169 122.15 70.0781 124.974 69.9789C127.146 69.9024 130.442 69.4721 131.365 67.1203C131.801 66.0109 131.524 64.7365 131.003 63.6649C129.782 61.1512 127.331 59.5821 124.662 59.0093C122.125 58.4651 119.299 58.7498 116.943 59.85C115.869 60.3513 114.734 61.1815 113.927 62.2068Z" fill="#291C1C"/>
<path d="M83.863 63.0185C83.9345 63.0887 84.0039 63.1602 84.0716 63.2321C84.8282 64.0358 85.3703 65.1099 85.2942 66.2139C85.1482 68.3264 83.0706 69.43 81.2937 70.0032C77.6882 71.1665 72.75 71.9328 69.0687 70.6177C68.0098 70.2392 67.0273 69.48 66.6568 68.4135C66.4104 67.7044 66.4524 66.923 66.6143 66.19C67.7881 60.8715 74.5929 58.9251 79.2565 60.3433C80.8879 60.8391 82.6265 61.7993 83.863 63.0185Z" fill="#291C1C"/>
<path d="M58.7965 83.3944C59.5871 81.3387 59.5564 79.039 59.0862 76.8874C58.6173 74.7404 57.7236 72.5409 58.2947 70.4187C59.0337 67.6745 61.9385 66.0894 63.2477 63.5673C64.1991 61.734 64.2033 59.4398 63.2582 57.6036C62.5441 56.2158 61.3005 54.9856 61.2807 53.4245C61.2589 51.7187 62.7094 50.3745 63.2296 48.7499C64.0451 46.2038 62.2897 43.3469 59.8533 42.2459C57.417 41.1448 54.5538 41.4733 52.0254 42.3426C48.7647 43.4638 45.7459 45.5191 43.9253 48.4471C42.1046 51.3751 41.6273 55.2211 43.1233 58.3279C43.6906 59.5059 44.541 60.6448 44.4981 61.9519C44.4569 63.2064 43.6023 64.2591 42.9445 65.3282C41.817 67.1614 41.1887 69.3828 41.6185 71.492C42.0487 73.6007 43.6843 75.521 45.8014 75.9079C46.471 76.0303 47.2187 76.0248 47.7356 76.4681C48.5729 77.1864 48.2605 78.5146 48.0094 79.5887C47.7579 80.6628 47.8958 82.1558 48.975 82.3834C49.3005 82.4519 49.6361 82.3745 49.9667 82.3358C53.0099 81.9792 53.3459 84.4265 54.7473 86.2147C56.2672 88.1531 58.1421 85.0964 58.7965 83.3944Z" fill="#291C1C"/>
<path d="M137.485 40.9078C135.239 42.9249 134.046 46.3987 135.176 49.2624C135.664 50.498 136.56 51.6789 136.383 53.0029C136.182 54.5051 134.692 55.4413 134.141 56.8443C133.804 57.7035 133.846 58.6671 133.893 59.5944C133.943 60.5647 133.998 61.5614 134.385 62.4442C135.604 65.2304 139.618 65.9412 140.414 68.891C140.944 70.8563 139.759 72.822 139.261 74.7966C138.723 76.9293 139.02 79.2794 140.068 81.193C140.552 82.0757 141.23 82.8975 142.142 83.2508C143.054 83.6036 144.222 83.3572 144.736 82.4929C145.228 81.6653 145.008 80.5823 145.267 79.6457C145.897 77.3671 148.74 76.9966 150.798 76.0087C154.341 74.3083 156.098 69.3965 154.493 65.6766C153.651 63.7235 152.001 61.8987 152.358 59.7879C152.687 57.8449 154.556 56.7072 155.844 55.2681C157.808 53.0752 158.494 49.622 157.255 46.9102C156.761 45.8272 156.004 44.9036 155.256 43.9935C150.652 38.3933 143.57 35.443 137.485 40.9078Z" fill="#291C1C"/>
<path d="M52.4127 32.573C54.5954 29.148 58.5273 26.9055 62.5866 26.7709C64.1502 26.7192 65.8254 26.9358 67.185 26.1615C68.9602 25.1505 69.4839 22.9021 70.235 21.0025C71.794 17.0588 75.0673 13.828 79.0311 12.3203C82.9945 10.8126 87.5875 11.0515 91.3734 12.9621C93.8817 14.228 96.419 16.2551 99.156 15.623C100.13 15.398 100.995 14.8462 101.814 14.2734C105.28 11.8514 108.528 8.79134 112.659 7.89091C117.496 6.83697 122.648 9.13031 125.93 12.8372C127.799 14.9484 129.38 17.6434 132.083 18.4446C133.603 18.895 135.236 18.6515 136.809 18.8496C138.831 19.104 140.939 20.3758 141.287 22.384C141.529 23.7879 140.873 25.1665 140.472 26.5337C140.071 27.901 140.021 29.6106 141.132 30.5022C141.713 30.9686 142.485 31.0981 143.185 31.3509C146.73 32.6311 148.058 37.8305 145.56 40.6534C144.889 41.4125 143.987 42.0009 142.984 42.1472C141.171 42.4113 139.466 41.2338 137.645 41.031C132.765 40.4877 128.859 46.8445 124.079 45.722C119.516 44.6504 118.341 37.5975 113.734 36.735C108.433 35.7429 104.756 43.914 99.4357 43.0367C96.1326 42.4925 94.3443 38.686 91.2229 37.4764C89.0814 36.6462 86.4339 37.2901 84.9695 39.059C83.5051 40.8283 83.3873 43.6045 84.7563 45.4487C86.1252 47.2928 88.8782 47.9733 90.9167 46.9152C88.1229 50.1123 82.3027 49.796 79.8718 46.3154C79.1968 45.349 78.7729 44.2248 78.0903 43.2638C77.4077 42.3028 76.3399 41.4802 75.1649 41.5727C73.647 41.6922 72.6919 43.1839 71.6918 44.3321C69.2824 47.0977 65.4603 48.409 61.7968 48.2214C58.6707 48.0612 53.1247 46.6128 51.2856 43.8173C49.2946 40.7917 50.6501 35.3395 52.4127 32.573Z" fill="#291C1C"/>
<path d="M99.272 105.86C97.8581 105.86 96.4454 105.663 95.0828 105.254C93.3408 104.731 92.0984 103.975 91.2855 102.943C91.1606 102.784 91.1879 102.556 91.3456 102.432C91.5033 102.307 91.7325 102.334 91.8566 102.492C92.5745 103.404 93.6983 104.079 95.2918 104.557C100.416 106.093 106.298 104.49 109.932 100.566C110.068 100.418 110.298 100.408 110.446 100.546C110.594 100.682 110.603 100.913 110.466 101.06C107.615 104.14 103.443 105.86 99.272 105.86Z" fill="#331510"/>
<path d="M100.582 100.735C99.868 100.735 99.1964 100.409 98.5424 100.092C97.7942 99.7279 97.0889 99.3872 96.4211 99.5882C96.2709 99.6345 96.1103 99.7005 95.9479 99.7661C95.32 100.019 94.4566 100.369 94.0066 99.6143C93.848 99.3502 93.8489 99.055 93.8497 98.8392L93.9969 77.0977C93.999 76.8983 94.1614 76.7368 94.3607 76.7368C94.3616 76.7368 94.3628 76.7368 94.3637 76.7368C94.5639 76.7389 94.7258 76.9021 94.7245 77.1035L94.5773 98.8443C94.5765 98.9797 94.5752 99.1508 94.6295 99.24C94.7438 99.4288 95.0416 99.3473 95.6746 99.092C95.8575 99.0175 96.0384 98.9448 96.207 98.8935C97.1457 98.602 98.0175 99.028 98.8595 99.4364C99.5913 99.7914 100.279 100.127 100.942 99.9646C101.334 99.8679 101.682 99.6 102.048 99.3153C102.472 98.9872 102.911 98.6474 103.476 98.5255C104.042 98.4006 104.589 98.5293 105.119 98.6533C105.63 98.7723 106.113 98.8867 106.539 98.7442C107.026 98.5806 107.413 98.0523 107.521 97.3979C107.627 96.7515 107.492 96.0664 107.36 95.4036C107.321 95.2072 107.449 95.0154 107.646 94.9759C107.842 94.9351 108.034 95.0659 108.074 95.2623C108.211 95.9541 108.367 96.7402 108.239 97.5169C108.087 98.4334 107.51 99.1853 106.77 99.4339C106.15 99.6421 105.542 99.4995 104.954 99.3611C104.481 99.2518 104.034 99.1462 103.631 99.2354C103.226 99.3233 102.87 99.5983 102.494 99.8906C102.083 100.208 101.658 100.537 101.117 100.671C100.935 100.716 100.757 100.735 100.582 100.735Z" fill="#331510"/>
</svg>
