<svg width="190" height="218" viewBox="0 0 190 218" fill="none" xmlns="http://www.w3.org/2000/svg">
<path d="M95.2326 217.223C77.7104 217.223 60.5984 212.392 45.7457 203.254C44.724 202.624 43.7281 201.985 42.7861 201.355C16.4077 183.753 0.65625 154.329 0.65625 122.646C0.65625 91.2437 15.897 62.4061 41.627 44.7181C40.3245 40.319 39.8957 36.1528 40.3516 32.2898C41.1282 25.7081 44.2672 19.6744 48.9623 15.7372C52.7579 12.5545 57.7147 10.729 62.5617 10.729C62.9362 10.729 63.3086 10.7396 63.6797 10.7613C67.7658 4.30937 75.4015 0.067627 83.5473 0.067627C84.3893 0.067627 85.2341 0.115554 86.0586 0.210559C93.7206 1.09021 100.499 6.17683 103.882 12.9833C106.425 12.0069 109.23 11.495 112.162 11.495C117.587 11.495 122.874 13.2072 127.049 16.3166C133.172 20.876 137.033 28.4624 137.593 36.5434C143.69 36.6702 149.85 39.3011 154.157 43.6357C157.01 46.5088 159.194 50.1436 160.525 54.217C179.159 72.0034 189.818 96.8618 189.818 122.648C189.818 151.423 176.952 178.284 154.517 196.341L153.875 196.856C137.023 210.186 116.752 217.223 95.2326 217.223Z" fill="white"/>
<path d="M184.566 122.647C184.566 150.847 171.532 175.997 151.15 192.402L150.518 192.908C135.268 204.973 115.999 212.168 95.0363 212.168C77.8649 212.168 61.823 207.332 48.199 198.948C47.2553 198.367 46.3201 197.769 45.4019 197.154C21.3472 181.103 5.51562 153.729 5.51562 122.647C5.51562 90.6721 22.2739 62.6154 47.4916 46.7838C61.2674 38.1222 77.5706 33.1174 95.0368 33.1174C108.324 33.1174 120.937 36.0075 132.278 41.2061C132.766 41.4249 133.255 41.6527 133.735 41.8885C141.875 45.7977 149.331 50.8954 155.878 56.9702C173.52 73.3158 184.566 96.688 184.566 122.647Z" fill="#F1B606"/>
<path d="M43.4174 80.6922C37.4087 77.3242 34.1912 69.8633 35.3126 63.067C36.4336 56.2707 41.5423 50.4232 47.9263 47.836C45.9121 43.1536 44.577 37.9457 45.175 32.8836C45.773 27.8216 48.1078 22.8868 52.0137 19.6113C55.9195 16.3357 61.4396 14.8979 66.3256 16.3514C69.0307 8.98973 77.493 4.33912 85.2851 5.23319C93.0773 6.12726 99.8236 12.8103 100.791 20.5936C106.816 15.0141 117.246 15.4658 123.832 20.3709C130.418 25.276 133.405 34.1798 132.134 42.2926C138.401 40.3479 145.748 42.5428 150.372 47.1985C154.997 51.8538 157.132 58.6721 156.701 65.2195C156.336 70.7624 153.877 76.5625 148.974 79.173C152.112 82.0855 154.054 87.1713 153.468 91.4117C152.881 95.6522 150.124 99.5343 146.314 101.485C145.371 101.968 144.322 102.345 143.27 102.219C142.144 102.085 141.168 101.399 140.288 100.684C137.637 98.5283 135.388 95.9232 133.277 93.2368C126.469 84.573 120.897 74.8613 112.965 67.2125C105.034 59.5637 93.8178 54.0991 83.1 56.6571C78.737 57.6983 74.7819 59.9831 70.9953 62.3875C62.6976 67.657 54.8596 73.6495 47.5989 80.2753C46.5636 81.2198 44.8073 80.5145 43.4174 80.6922Z" fill="#3F3635"/>
<path d="M134.695 122.828C135.906 121.755 136.506 120.167 137.03 118.636C138.113 115.475 139.074 112.162 138.719 108.84C138.363 105.518 136.395 102.165 133.225 101.11C132.72 100.942 132.175 100.834 131.656 100.956C130.868 101.141 130.298 101.812 129.831 102.472C126.732 106.848 125.723 112.427 126.442 117.686C126.7 119.58 127.013 122.834 128.819 123.973C130.512 125.04 133.347 124.022 134.695 122.828Z" fill="#F1B606"/>
<g opacity="0.72">
<path d="M134.695 122.828C135.906 121.755 136.506 120.167 137.03 118.636C138.113 115.475 139.074 112.162 138.719 108.84C138.363 105.518 136.395 102.165 133.225 101.11C132.72 100.942 132.175 100.834 131.656 100.956C130.868 101.141 130.298 101.812 129.831 102.472C126.732 106.848 125.723 112.427 126.442 117.686C126.7 119.58 127.013 122.834 128.819 123.973C130.512 125.04 133.347 124.022 134.695 122.828Z" fill="#FF9999"/>
</g>
<path d="M53.8823 123.831C52.671 122.758 52.0712 121.171 51.547 119.64C50.4642 116.479 49.5027 113.166 49.8586 109.844C50.2144 106.522 52.1824 103.169 55.3523 102.113C55.8571 101.945 56.4025 101.838 56.9208 101.959C57.7088 102.145 58.2788 102.815 58.7467 103.476C61.8454 107.852 62.854 113.431 62.1355 118.689C61.8768 120.583 61.5637 123.838 59.7582 124.976C58.0651 126.044 55.2302 125.025 53.8823 123.831Z" fill="#F1B606"/>
<g opacity="0.72">
<path d="M53.8823 123.831C52.671 122.758 52.0712 121.171 51.547 119.64C50.4642 116.479 49.5027 113.166 49.8586 109.844C50.2144 106.522 52.1824 103.169 55.3523 102.113C55.8571 101.945 56.4025 101.838 56.9208 101.959C57.7088 102.145 58.2788 102.815 58.7467 103.476C61.8454 107.852 62.854 113.431 62.1355 118.689C61.8768 120.583 61.5637 123.838 59.7582 124.976C58.0651 126.044 55.2302 125.025 53.8823 123.831Z" fill="#FF9999"/>
</g>
<path d="M70.2461 179.764C75.5541 176.849 79.9859 174.641 81.8058 173.521C84.9991 171.566 85.5976 164.143 85.5216 158.127C85.5216 157.765 85.5132 157.403 85.5047 157.049C85.5047 156.838 85.4962 156.628 85.4877 156.417C85.4792 156.114 85.4623 155.81 85.4542 155.524C85.4372 155.254 85.4287 154.984 85.4122 154.732C85.4037 154.504 85.3868 154.277 85.3783 154.058C85.3698 153.973 85.3698 153.898 85.3613 153.822C85.3443 153.51 85.3274 153.215 85.3024 152.937V152.912C85.2854 152.701 85.2769 152.491 85.2604 152.297C85.2099 151.699 85.1675 151.185 85.1255 150.789C85.117 150.654 85.1001 150.536 85.092 150.435C85.0581 150.064 85.033 149.862 85.033 149.862L109.13 149.213C109.13 149.213 109.105 150.612 109.172 152.709V152.827C109.181 153.004 109.189 153.181 109.189 153.358C109.215 154.049 109.248 154.807 109.29 155.599C109.307 155.902 109.324 156.206 109.349 156.517C109.382 156.964 109.416 157.427 109.45 157.891C109.618 159.98 109.888 162.196 110.284 164.227C110.369 164.665 110.461 165.095 110.562 165.507C110.874 166.822 111.253 168.018 111.708 169.004C113.2 172.222 117.707 173.655 123.184 175.281" fill="#F1B606"/>
<g opacity="0.72">
<path d="M123.184 175.281C120.321 174.431 117.302 173.632 114.721 172.08C113.749 171.496 112.741 170.736 112.128 169.771C111.303 168.473 110.905 166.911 110.537 165.432C109.243 160.228 109.051 154.554 109.13 149.213C109.13 149.213 85.172 149.858 85.0337 149.862C85.3828 149.853 85.5155 157.833 85.5261 158.646C85.5613 161.436 85.435 164.267 84.9502 167.018C84.5748 169.147 83.981 171.807 82.2031 173.24C82.0767 173.342 81.9448 173.436 81.8065 173.521C79.9866 174.641 75.5548 176.849 70.2468 179.764L65.4023 195.559L78.1386 200.281L97.9583 211.26L102.733 210.382L115.908 190.728L135.395 191.826L123.184 175.281Z" fill="#FF9999"/>
</g>
<path d="M109.29 155.599C106.249 158.254 102.238 159.888 98.1855 160.006C94.9333 160.099 89.4315 158.86 85.4883 156.416C85.3619 152.692 85.0332 149.861 85.0332 149.861L109.13 149.212C109.13 149.213 109.088 151.993 109.29 155.599Z" fill="#3F3635"/>
<path d="M137.087 89.6782C137.129 90.3607 137.146 91.0516 137.146 91.7425C137.146 95.0791 136.734 98.3059 135.975 101.406L135.697 102.586L130.498 124.416L130.431 124.695C130.338 125.166 130.237 125.672 130.119 126.186C129.176 130.458 127.583 135.943 126.555 139.532C126.547 139.549 126.547 139.565 126.538 139.582C124.542 146.449 117.675 150.594 109.173 152.709C101.776 154.546 93.1396 154.849 85.3797 154.057C75.8337 153.088 67.6187 150.467 64.6443 147.03C62.8243 144.924 61.3921 141.225 60.263 136.734C59.6226 134.206 59.0835 131.426 58.6199 128.544V128.536L58.4431 127.407C58.3841 127.415 58.3336 127.432 58.2747 127.441L58.1063 125.427L56.3033 103.891C56.2694 103.2 56.2444 102.543 56.2189 101.92C56.0675 98.1956 56.0421 95.8281 56.0421 95.8281L56.1769 95.8197C56.042 94.4802 55.9746 93.1234 55.9746 91.7416C55.9746 69.3296 74.1398 51.156 96.5602 51.156C101.961 51.156 107.117 52.2091 111.827 54.13C112.03 54.2144 112.232 54.2984 112.434 54.3913C126.151 60.2218 135.983 73.3822 137.036 88.961L137.146 88.9441C137.146 88.9453 137.129 89.1981 137.087 89.6782Z" fill="#F1B606"/>
<g opacity="0.72">
<path d="M137.088 89.6782C137.13 90.3607 137.147 91.0516 137.147 91.7425C137.147 95.0791 136.734 98.3059 135.976 101.406L135.697 102.586L130.499 124.416L130.431 124.695C130.339 125.166 130.238 125.672 130.12 126.186C129.176 130.458 127.584 135.943 126.556 139.532C126.547 139.549 126.547 139.565 126.539 139.582C124.542 146.449 117.675 150.594 109.174 152.709C101.776 154.546 93.14 154.849 85.3801 154.057C75.8342 153.088 67.6192 150.467 64.6447 147.03C62.8248 144.924 61.3925 141.225 60.2634 136.734C59.623 134.206 59.0839 131.426 58.6203 128.544V128.536L58.4435 127.407C58.3845 127.415 58.5024 127.398 58.4435 127.407L58.1063 125.427L56.3033 103.891C56.2694 103.2 56.2444 102.543 56.2189 101.92C56.0675 98.1956 56.042 95.8281 56.042 95.8281L56.1769 95.8197C56.042 94.4802 55.9746 93.1234 55.9746 91.7416C55.9746 69.3296 74.1398 51.156 96.5602 51.156C101.961 51.156 107.117 52.2091 111.827 54.13C112.03 54.2144 112.232 54.2984 112.434 54.3913C126.151 60.2218 135.983 73.3822 137.036 88.961L137.146 88.9441C137.147 88.9453 137.13 89.1981 137.088 89.6782Z" fill="#FF9999"/>
</g>
<path d="M52.4803 109.411C54.489 110.517 57.15 109.572 58.6226 107.814C60.0952 106.056 60.6224 103.703 60.9087 101.427C61.298 98.3316 61.6255 94.6811 64.3039 93.0808C65.3184 92.4747 66.5259 92.2826 67.5985 91.7864C69.7001 90.8138 71.1663 88.5982 71.2405 86.2837C71.3029 84.3352 70.4669 82.4856 70.0258 80.5863C69.5847 78.687 69.6539 76.4158 71.123 75.1341C72.8527 73.6246 75.4746 74.2481 77.7603 74.4627C81.2445 74.7897 85.2496 73.5686 86.7192 70.3923C87.9848 67.6566 86.8575 64.1898 84.5193 62.288C82.181 60.3862 78.9063 59.9116 75.9509 60.5062C72.996 61.1008 70.3172 62.6557 67.8996 64.4553C58.5441 71.4208 52.488 82.3469 50.4665 93.8341C49.7302 98.019 49.5186 102.446 51.0527 106.408L52.4803 109.411Z" fill="#3F3635"/>
<path d="M56.2363 107.91C56.4929 111.596 56.9523 115.267 57.6114 118.902C57.6682 114.371 58.153 109.824 58.8532 105.347C58.0024 105.254 56.6855 107.181 56.2363 107.91Z" fill="#3F3635"/>
<path d="M132.358 105.458C131.961 109.965 131.248 114.456 130.226 118.902C130.138 113.36 129.386 107.798 128.301 102.322C129.62 102.21 131.662 104.566 132.358 105.458Z" fill="#3F3635"/>
<path d="M91.9593 67.4366C93.0273 70.579 95.8147 73.0754 99.0551 73.7914C101.03 74.2278 103.25 74.0925 104.858 75.3195C107.421 77.2752 106.81 81.1713 107.117 84.3807C107.527 88.6831 110.627 92.9634 114.917 93.4923C117.9 93.86 121.596 92.6737 123.488 95.0086C124.514 96.275 124.466 98.0602 124.659 99.6791C124.907 101.752 125.668 103.818 127.116 105.322C128.564 106.826 130.762 107.685 132.798 107.221C136.446 106.391 138.032 102.052 138.247 98.3177C138.743 89.6925 135.181 81.1301 129.563 74.5667C123.946 68.0032 116.407 63.3005 108.443 59.9515C105.003 58.5048 98.4032 55.2971 94.6453 57.1285C91.3651 58.7275 90.9554 64.4825 91.9593 67.4366Z" fill="#3F3635"/>
<path d="M150.519 192.908C135.269 204.973 116 212.168 95.0368 212.168C77.8654 212.168 61.8235 207.332 48.1995 198.949C47.2558 198.367 46.3206 197.769 45.4023 197.154C51.4772 190.591 61.9418 184.314 70.2493 179.764C71.9343 181.323 73.535 182.983 75.1276 184.634C82.997 192.781 90.8663 200.929 98.7276 209.076C106.058 197.137 114.34 186.125 123.187 175.281C127.964 176.697 133.475 178.256 138.387 181.264C143.602 184.457 147.705 189.066 150.519 192.908Z" fill="#C55C33"/>
<path d="M77.9392 109.779C77.9392 112.076 76.0772 113.938 73.7801 113.938C71.483 113.938 69.6211 112.076 69.6211 109.779C69.6211 107.482 71.483 105.62 73.7801 105.62C76.0772 105.62 77.9392 107.482 77.9392 109.779Z" fill="#3F3635"/>
<path d="M115.513 108.919C115.513 111.216 113.651 113.078 111.354 113.078C109.057 113.078 107.195 111.216 107.195 108.919C107.195 106.621 109.057 104.76 111.354 104.76C113.651 104.76 115.513 106.622 115.513 108.919Z" fill="#3F3635"/>
<path d="M94.0241 122.952C93.6186 122.952 93.2131 122.902 92.8174 122.8C92.2559 122.655 91.7304 122.413 91.221 122.179C90.4809 121.838 89.7815 121.517 89.0456 121.517C89.0405 121.517 89.035 121.517 89.0291 121.517C88.711 121.519 88.3742 121.579 88.0184 121.643C87.2579 121.777 86.3995 121.93 85.6619 121.446C85.0367 121.035 84.6838 120.23 84.7403 119.347C84.7882 118.611 85.0863 117.936 85.3497 117.341C85.4447 117.127 85.6958 117.033 85.9049 117.126C86.1178 117.22 86.2145 117.469 86.1204 117.681C85.8735 118.239 85.6191 118.815 85.5809 119.401C85.5444 119.974 85.7577 120.5 86.125 120.742C86.581 121.041 87.179 120.935 87.8716 120.813C88.2465 120.747 88.6346 120.677 89.0244 120.675C89.0312 120.675 89.0393 120.675 89.0469 120.675C89.9668 120.675 90.7829 121.05 91.5726 121.413C92.0705 121.642 92.5396 121.858 93.0278 121.983C94.0478 122.245 95.1917 122.08 96.0951 121.543C96.3941 121.365 96.6732 121.147 96.9688 120.916C97.4528 120.539 97.9532 120.149 98.567 119.924C99.0882 119.734 99.6341 119.684 100.162 119.636C100.828 119.575 101.457 119.517 101.934 119.182C102.271 118.947 102.498 118.546 102.557 118.084C102.616 117.62 102.497 117.175 102.229 116.862C102.078 116.685 102.099 116.419 102.276 116.268C102.453 116.118 102.719 116.138 102.871 116.315C103.292 116.808 103.482 117.491 103.393 118.19C103.304 118.888 102.948 119.501 102.417 119.873C101.756 120.336 100.985 120.407 100.238 120.475C99.7431 120.52 99.274 120.563 98.8566 120.716C98.3668 120.894 97.9392 121.228 97.4871 121.581C97.1847 121.817 96.8708 122.061 96.5265 122.266C95.7685 122.718 94.8978 122.951 94.0241 122.952Z" fill="#3F3635"/>
<path d="M66.1201 95.1325C65.6098 95.594 65.114 96.1178 64.9177 96.7773C64.7209 97.4364 64.9155 98.2584 65.5203 98.5862C65.9534 98.8212 66.4806 98.7597 66.9675 98.6833C68.9545 98.3716 70.9191 97.9165 72.8409 97.3236C73.6175 97.0839 74.4097 96.8091 75.0192 96.2717C75.6291 95.7343 76.0189 94.87 75.775 94.0947C75.5523 93.3868 74.8551 92.9117 74.1323 92.7446C71.4607 92.1275 68.0813 93.3596 66.1201 95.1325Z" fill="#3F3635"/>
<path d="M117.059 96.1006C117.569 96.562 118.065 97.0858 118.261 97.7454C118.458 98.4045 118.263 99.2264 117.658 99.5543C117.225 99.7893 116.698 99.7278 116.211 99.6514C114.224 99.3397 112.26 98.8846 110.338 98.2916C109.561 98.052 108.769 97.7772 108.16 97.2398C107.55 96.7024 107.16 95.838 107.404 95.0627C107.626 94.3549 108.324 93.8798 109.046 93.7127C111.718 93.0952 115.097 94.3273 117.059 96.1006Z" fill="#3F3635"/>
<path d="M81.4883 132.005C81.4883 132.005 85.3606 132.112 87.6191 130.176C89.878 128.24 90.5231 126.089 95.1483 125.982C99.7735 125.874 101.602 130.499 103.861 130.822C106.119 131.145 107.625 130.822 107.625 130.822C107.625 130.822 99.4507 136.307 81.4883 132.005Z" fill="#A65236"/>
<path d="M82.0527 132.022C85.8572 133.643 88.1064 138.015 92.0847 139.143C93.8805 139.652 95.8048 139.416 97.6201 138.982C98.3572 138.806 99.0914 138.596 99.7683 138.255C102.746 136.755 104.002 133.115 106.68 131.128C102.004 131.878 97.2787 131.878 92.5432 131.91C89.2057 131.933 85.3907 131.999 82.0527 132.022Z" fill="#A65236"/>
<path d="M93.564 133.563C93.1708 133.563 92.781 133.554 92.3929 133.537C90.5654 133.454 88.7276 133.225 86.9496 133.004C85.2268 132.789 83.4455 132.568 81.687 132.482C81.5127 132.473 81.3782 132.325 81.3871 132.151C81.3969 131.977 81.5589 131.843 81.7184 131.851C83.5006 131.938 85.293 132.161 87.0281 132.377C88.7938 132.597 90.6184 132.824 92.4205 132.906C97.3769 133.128 102.845 131.825 107.54 130.518C107.709 130.473 107.881 130.569 107.928 130.738C107.976 130.906 107.877 131.08 107.709 131.127C103.331 132.345 98.2833 133.563 93.564 133.563Z" fill="#3F3635"/>
<g opacity="0.28">
<path d="M81.092 130.567C81.092 136.827 76.0198 141.9 69.7681 141.9C65.783 141.9 62.278 139.844 60.2642 136.735C59.6237 134.207 59.0847 131.427 58.6211 128.545V128.537C58.8654 127.181 59.354 125.908 60.0364 124.771C60.3482 124.24 60.7104 123.734 61.1065 123.262C63.1877 120.802 66.2966 119.243 69.7681 119.243C76.0198 119.243 81.092 124.315 81.092 130.567Z" fill="#FF9999"/>
</g>
<g opacity="0.28">
<path d="M130.12 126.186C129.176 130.458 127.584 135.943 126.556 139.532C126.547 139.549 126.547 139.566 126.539 139.583C124.635 141.032 122.251 141.9 119.672 141.9C113.412 141.9 108.34 136.828 108.34 130.567C108.34 124.316 113.412 119.243 119.672 119.243C122.731 119.243 125.511 120.448 127.542 122.428C128.047 122.908 128.511 123.448 128.915 124.02C129.395 124.686 129.8 125.42 130.12 126.186Z" fill="#FF9999"/>
</g>
<path d="M134.696 122.828C134.696 122.828 137.957 118.237 134.085 111.138C130.213 104.039 95.1482 65.7482 93.6426 61.6609C93.6426 61.6609 72.5611 72.6319 65.892 82.5273C59.2234 92.4228 53.6304 115.44 55.5665 125.336C55.5665 125.336 49.7449 120.98 43.3049 107.697C36.4212 93.4988 40.0781 85.109 44.8105 78.6554C49.543 72.2018 65.892 51.7655 85.8983 49.3992C85.8983 49.3992 89.7707 42.3001 104.829 45.5269C119.887 48.7537 141.399 62.306 142.044 81.8822C142.044 81.8822 146.131 95.65 143.55 101.028C140.969 106.406 141.614 108.988 141.614 108.988C141.614 108.988 138.817 122.97 134.945 123.616L134.696 122.828Z" fill="#FFC17D"/>
<path d="M96.8722 66.5251C96.8086 66.5251 96.7458 66.4963 96.7038 66.4416C96.4438 66.0976 96.1809 65.7545 95.9175 65.4109C94.8766 64.0537 93.7998 62.6503 92.8879 61.1234C92.2576 60.0686 91.7351 58.9586 91.2304 57.8856C90.7397 56.8418 90.232 55.7624 89.628 54.7423C88.4311 52.7209 86.9573 50.8764 85.2476 49.26C85.1632 49.1803 85.1594 49.0466 85.2387 48.9622C85.3205 48.8783 85.4533 48.8749 85.5368 48.9538C87.2745 50.5973 88.7734 52.4724 89.9902 54.5277C90.6039 55.5647 91.1167 56.6535 91.6121 57.7062C92.1117 58.7699 92.6296 59.8696 93.2484 60.9067C94.148 62.4123 95.2172 63.806 96.2513 65.1539C96.5163 65.4983 96.7797 65.8423 97.0401 66.1871C97.1097 66.28 97.0915 66.4119 96.999 66.4823C96.9613 66.5116 96.9167 66.5251 96.8722 66.5251Z" fill="#A65236"/>
<path d="M141.845 106.099C141.749 106.099 141.663 106.034 141.64 105.937C140.859 102.644 138.759 99.5195 135.035 96.1035C134.047 95.198 133.003 94.3141 131.994 93.459C129.954 91.7307 127.845 89.9434 126.074 87.8745C123.556 84.9331 121.736 81.4438 119.976 78.0694C118.692 75.6069 117.364 73.0608 115.775 70.7489C112.616 66.1513 108.032 61.9325 102.151 58.209C96.8805 54.8728 91.1098 52.2292 85.5291 49.6729C85.4235 49.6246 85.3772 49.4994 85.4252 49.3938C85.4748 49.2874 85.5986 49.2411 85.7051 49.2899C91.2981 51.8521 97.082 54.5017 102.376 57.8531C108.306 61.6071 112.931 65.8654 116.122 70.5097C117.725 72.8432 119.06 75.4008 120.35 77.8743C122.099 81.2279 123.908 84.696 126.395 87.6005C128.143 89.6431 130.24 91.4198 132.267 93.1375C133.279 93.9951 134.326 94.8812 135.319 95.793C139.109 99.2688 141.248 102.461 142.05 105.839C142.077 105.952 142.007 106.066 141.894 106.093C141.878 106.097 141.861 106.099 141.845 106.099Z" fill="#A65236"/>
<path d="M135.011 123.75C134.962 123.75 134.914 123.734 134.873 123.7C134.785 123.624 134.776 123.491 134.852 123.402C136.275 121.751 137.006 119.332 136.856 116.766C136.736 114.705 136.102 112.525 134.861 109.906C131.849 103.551 127.179 98.2194 122.664 93.0632C121.268 91.4689 119.877 89.8669 118.486 88.2646C110.646 79.2322 102.54 69.8924 93.36 61.9641C93.2718 61.8878 93.2625 61.755 93.3384 61.6668C93.4152 61.579 93.5466 61.5688 93.6357 61.6452C102.839 69.5938 110.955 78.9451 118.805 87.9889C120.196 89.5908 121.586 91.1923 122.981 92.7862C127.516 97.964 132.205 103.317 135.242 109.726C136.507 112.396 137.153 114.626 137.277 116.742C137.433 119.417 136.666 121.945 135.171 123.678C135.129 123.726 135.07 123.75 135.011 123.75Z" fill="#A65236"/>
<path d="M138.785 117.871C138.78 117.871 138.776 117.871 138.771 117.871C138.655 117.864 138.567 117.763 138.574 117.647C139.059 110.212 135.458 103.629 132.353 99.4159C129.013 94.8862 124.793 90.9782 120.714 87.1992C120.01 86.5469 119.307 85.8958 118.607 85.2414C114.338 81.2444 109.963 76.8834 105.233 71.9096C104.686 71.3349 104.146 70.7501 103.603 70.1639C100.609 66.9257 97.5124 63.5772 93.3877 62.0015C93.2787 61.9599 93.2248 61.8386 93.2655 61.7301C93.3075 61.6211 93.4331 61.5668 93.5374 61.6083C97.7545 63.2192 100.885 66.6042 103.913 69.8781C104.453 70.4625 104.993 71.0465 105.538 71.6195C110.263 76.5874 114.632 80.9424 118.895 84.9339C119.594 85.5879 120.296 86.239 121 86.8904C125.094 90.6826 129.328 94.6045 132.69 99.1661C135.839 103.436 139.487 110.113 138.994 117.675C138.988 117.785 138.894 117.871 138.785 117.871Z" fill="#A65236"/>
<path d="M144.672 94.1881C144.624 94.1881 144.576 94.172 144.536 94.1385C143.247 93.0485 141.821 92.0802 140.441 91.1433C139.158 90.2717 137.831 89.3708 136.608 88.369C134.055 86.2755 131.898 83.6997 129.812 81.2088L129.231 80.5162C124.347 74.7022 117.723 67.246 109.776 61.1461C101.792 55.0178 93.5343 51.0551 85.2315 49.3675C85.1174 49.3446 85.0441 49.2331 85.0665 49.1194C85.0903 49.0053 85.201 48.9307 85.3151 48.9553C93.6807 50.6552 101.997 54.6446 110.032 60.8123C118.011 66.9368 124.656 74.4151 129.554 80.2452L130.135 80.9386C132.208 83.4147 134.352 85.9752 136.875 88.0433C138.083 89.0332 139.402 89.929 140.678 90.7955C142.066 91.7383 143.502 92.713 144.808 93.8174C144.897 93.8925 144.908 94.0252 144.834 94.1143C144.792 94.1627 144.733 94.1881 144.672 94.1881Z" fill="#A65236"/>
<path d="M142.351 82.3188C142.253 82.3188 142.164 82.2501 142.145 82.15C141.564 79.2786 138.936 77.476 136.395 75.7324C135.94 75.4207 135.49 75.1119 135.056 74.7998C131.454 72.2121 128.517 68.7868 125.678 65.4748C123.663 63.1242 121.58 60.694 119.274 58.5814C110.555 50.5924 97.911 46.9292 86.2698 49.0244C86.1494 49.0426 86.045 48.968 86.0247 48.8543C86.0047 48.7398 86.0806 48.6304 86.1947 48.6092C97.9546 46.4932 110.743 50.1933 119.559 58.2709C121.883 60.4005 123.975 62.8405 125.997 65.2004C128.82 68.4938 131.741 71.8995 135.302 74.4579C135.734 74.7679 136.182 75.075 136.633 75.3846C139.244 77.1753 141.943 79.0271 142.558 82.066C142.58 82.1801 142.507 82.2912 142.393 82.3145C142.379 82.3175 142.365 82.3188 142.351 82.3188Z" fill="#A65236"/>
<path d="M55.4238 125.494C55.3619 125.494 55.3008 125.467 55.2588 125.415C51.3178 120.491 49.8286 113.44 51.1731 106.069C52.4845 98.8914 56.1906 92.4311 59.2736 87.6049C63.7889 80.5384 68.3666 74.9148 73.2691 70.4114C79.1701 64.991 85.5512 61.181 92.2359 59.0871C92.3457 59.0527 92.4645 59.1138 92.5001 59.2253C92.5341 59.336 92.473 59.4544 92.3614 59.4891C85.7369 61.5648 79.4089 65.3439 73.5533 70.7219C68.6788 75.1999 64.124 80.7963 59.6295 87.8314C56.5664 92.6249 52.8854 99.039 51.5884 106.145C50.2651 113.395 51.7237 120.322 55.5883 125.152C55.6609 125.242 55.646 125.375 55.5553 125.448C55.5162 125.479 55.47 125.494 55.4238 125.494Z" fill="#A65236"/>
<path d="M46.6057 113.817C46.5272 113.817 46.4513 113.773 46.4157 113.697C44.5096 109.708 43.9447 104.78 44.8252 99.8205C45.5734 95.6097 47.2856 91.3408 50.0607 86.7695C54.204 79.9456 60.102 73.4853 67.5913 67.5673C74.296 62.2708 80.7725 57.9815 88.5914 53.6605C88.6923 53.6045 88.8217 53.6405 88.8772 53.7428C88.9341 53.845 88.8972 53.9731 88.7954 54.029C80.9973 58.3387 74.5386 62.6156 67.853 67.8977C60.4019 73.7847 54.5378 80.2077 50.4216 86.9883C47.6724 91.5143 45.9784 95.7361 45.24 99.8938C44.3743 104.768 44.927 109.605 46.7953 113.516C46.8458 113.621 46.8012 113.747 46.696 113.797C46.6676 113.811 46.6362 113.817 46.6057 113.817Z" fill="#A65236"/>
<path d="M43.6478 109.561C43.5659 109.561 43.4883 109.513 43.4544 109.434C41.7646 105.499 41.6654 100.706 43.1528 94.7804C44.6271 88.9036 47.0264 83.8845 50.2829 79.8624C53.0652 76.4265 56.616 73.5789 60.0146 70.9565C68.8798 64.1169 78.2141 57.5997 87.2414 51.2971C87.3355 51.2314 87.4856 51.2403 87.5527 51.337C87.6197 51.432 87.6146 51.5508 87.5187 51.6173L87.4823 51.6432C78.4601 57.9428 69.1301 64.4571 60.2729 71.2911C56.753 74.0056 53.3659 76.7247 50.6108 80.1279C47.3929 84.102 45.0203 89.0665 43.5608 94.8835C42.098 100.715 42.1892 105.421 43.8416 109.267C43.8878 109.374 43.8382 109.498 43.7309 109.544C43.7033 109.556 43.6754 109.561 43.6478 109.561Z" fill="#A65236"/>
<path d="M135.16 157.169C128.764 157.169 122.784 153.735 119.552 148.208C119.494 148.107 119.528 147.979 119.628 147.92C119.727 147.862 119.857 147.894 119.916 147.996C123.072 153.395 128.912 156.748 135.159 156.748C144.888 156.748 152.804 148.833 152.804 139.104C152.804 129.375 144.889 121.459 135.159 121.459C134.409 121.459 133.655 121.507 132.918 121.6C132.801 121.619 132.697 121.533 132.682 121.418C132.668 121.302 132.749 121.197 132.866 121.182C133.621 121.086 134.392 121.038 135.159 121.038C145.12 121.038 153.226 129.142 153.226 139.103C153.226 149.065 145.121 157.169 135.16 157.169Z" fill="#C55C33"/>
<path d="M54.3843 158.475C53.6014 158.475 52.8142 158.424 52.0278 158.319C42.154 157.006 35.1877 147.905 36.5008 138.031C37.1366 133.248 39.5969 128.998 43.4286 126.065C47.2602 123.132 51.999 121.866 56.7883 122.503C57.5488 122.604 58.308 122.754 59.0438 122.949C59.1562 122.978 59.2232 123.094 59.194 123.206C59.1634 123.317 59.0502 123.385 58.9361 123.356C58.2176 123.166 57.4767 123.019 56.7327 122.921C52.0639 122.3 47.4273 123.535 43.6843 126.399C39.9422 129.264 37.5395 133.414 36.9177 138.086C35.636 147.73 42.4403 156.619 52.0838 157.901C58.2757 158.723 64.5062 156.169 68.3467 151.233C68.4201 151.142 68.5516 151.125 68.6424 151.197C68.7348 151.268 68.7514 151.4 68.6797 151.492C65.2357 155.918 59.9129 158.475 54.3843 158.475Z" fill="#C55C33"/>
<path d="M29.1074 170.553C29.1074 170.553 34.4684 170.829 35.4376 169.582C36.4067 168.336 37.4552 162.937 37.4552 162.937C37.4552 162.937 37.9451 167.979 38.7433 169.406C39.6768 171.074 44.6175 172.088 44.6175 172.088C44.6175 172.088 40.0059 171.945 38.7887 173.308C37.9586 174.238 36.4581 178.217 36.3071 179.852C36.3071 179.852 36.1981 173.712 34.8705 172.794C33.543 171.876 29.1074 170.553 29.1074 170.553Z" fill="#C55C33"/>
<path d="M14.0938 119.869C14.0938 119.869 19.4548 120.145 20.4239 118.899C21.3931 117.652 22.4415 112.253 22.4415 112.253C22.4415 112.253 22.9314 117.295 23.7296 118.722C24.6631 120.39 29.6038 121.404 29.6038 121.404C29.6038 121.404 24.9923 121.261 23.775 122.625C22.945 123.554 21.4444 127.534 21.2934 129.169C21.2934 129.169 21.1844 123.028 19.8569 122.111C18.5293 121.192 14.0938 119.869 14.0938 119.869Z" fill="#C55C33"/>
<path d="M119.887 158.506C119.887 158.506 125.247 158.782 126.217 157.536C127.186 156.289 128.234 150.89 128.234 150.89C128.234 150.89 128.724 155.932 129.523 157.359C130.456 159.027 135.397 160.041 135.397 160.041C135.397 160.041 130.786 159.898 129.568 161.262C128.738 162.191 127.237 166.171 127.086 167.806C127.086 167.806 126.977 161.665 125.65 160.748C124.322 159.83 119.887 158.506 119.887 158.506Z" fill="#C55C33"/>
<path d="M157.365 119.87C157.365 119.87 162.726 120.145 163.695 118.899C164.665 117.652 165.713 112.253 165.713 112.253C165.713 112.253 166.203 117.296 167.001 118.722C167.935 120.39 172.875 121.405 172.875 121.405C172.875 121.405 168.264 121.262 167.046 122.625C166.216 123.554 164.716 127.534 164.565 129.169C164.565 129.169 164.456 123.028 163.128 122.111C161.8 121.192 157.365 119.87 157.365 119.87Z" fill="#C55C33"/>
<path d="M161.693 86.5432C163.198 86.5432 164.418 85.3234 164.418 83.8186C164.418 82.3138 163.198 81.094 161.693 81.094C160.189 81.094 158.969 82.3138 158.969 83.8186C158.969 85.3234 160.189 86.5432 161.693 86.5432Z" fill="#C55C33"/>
<path d="M24.1602 86.5431C25.6649 86.5431 26.8848 85.3233 26.8848 83.8185C26.8848 82.3137 25.6649 81.0939 24.1602 81.0939C22.6554 81.0939 21.4355 82.3137 21.4355 83.8185C21.4355 85.3233 22.6554 86.5431 24.1602 86.5431Z" fill="#C55C33"/>
<path d="M48.6836 141.614C50.1884 141.614 51.4082 140.394 51.4082 138.889C51.4082 137.384 50.1884 136.164 48.6836 136.164C47.1788 136.164 45.959 137.384 45.959 138.889C45.959 140.394 47.1788 141.614 48.6836 141.614Z" fill="#C55C33"/>
<path d="M162.411 162.122C162.411 163.627 161.191 164.846 159.686 164.846C158.181 164.846 156.961 163.627 156.961 162.122C156.961 160.617 158.181 159.397 159.686 159.397C161.191 159.397 162.411 160.617 162.411 162.122Z" fill="#C55C33"/>
</svg>
